STARTFONT 2.1
COMMENT
COMMENT Converted from OpenType font "Logisoso.ttf" by "otf2bdf.exe 3.0".
COMMENT
FONT -FreeType-Logisoso-Medium-R-Normal--33-240-100-100-P-42-ISO10646-1
SIZE 24 100 100
FONTBOUNDINGBOX 89 35 -2 -6
STARTPROPERTIES 19
FOUNDRY "FreeType"
FAMILY_NAME "Logisoso"
WEIGHT_NAME "Medium"
SLANT "R"
SETWIDTH_NAME "Normal"
ADD_STYLE_NAME ""
PIXEL_SIZE 33
POINT_SIZE 240
RESOLUTION_X 100
RESOLUTION_Y 100
SPACING "P"
AVERAGE_WIDTH 42
CHARSET_REGISTRY "ISO10646"
CHARSET_ENCODING "1"
FONT_ASCENT 27
FONT_DESCENT 5
COPYRIGHT "Created by Mathieu Gabiot with FontForge 2.0 (http://fontforge.sf.net) - Brussels - 2009"
_OTF_FONTFILE "Logisoso.ttf"
_OTF_PSNAME "Logisoso"
ENDPROPERTIES
CHARS 527
STARTCHAR 001E
ENCODING 30
SWIDTH 450 0
DWIDTH 15 0
BBX 0 0 0 0
BITMAP
ENDCHAR
STARTCHAR 001F
ENCODING 31
SWIDTH 450 0
DWIDTH 15 0
BBX 0 0 0 0
BITMAP
ENDCHAR
STARTCHAR 0020
ENCODING 32
SWIDTH 450 0
DWIDTH 15 0
BBX 0 0 0 0
BITMAP
ENDCHAR
STARTCHAR 0021
ENCODING 33
SWIDTH 270 0
DWIDTH 9 0
BBX 3 24 3 0
BITMAP
E0
E0
E0
E0
E0
E0
E0
E0
E0
E0
E0
E0
E0
E0
E0
E0
E0
E0
E0
00
00
E0
E0
E0
ENDCHAR
STARTCHAR 0022
ENCODING 34
SWIDTH 450 0
DWIDTH 15 0
BBX 6 4 4 20
BITMAP
EC
EC
4C
48
ENDCHAR
STARTCHAR 0023
ENCODING 35
SWIDTH 480 0
DWIDTH 16 0
BBX 12 24 2 0
BITMAP
0E70
0E70
0EF0
1EF0
1CE0
1CE0
1CE0
1CE0
FFF0
FFF0
FFF0
39C0
39C0
39C0
FFF0
FFF0
FFF0
7B80
7380
7380
7380
7380
7780
F700
ENDCHAR
STARTCHAR 0024
ENCODING 36
SWIDTH 450 0
DWIDTH 15 0
BBX 11 30 2 -3
BITMAP
0E00
0E00
0E00
1F00
3F80
7FC0
71E0
E0E0
E0E0
E000
E000
F000
7800
3C00
1E00
0F00
0780
03C0
01E0
00E0
00E0
E0E0
E0E0
F1C0
7FC0
3F80
1F00
0E00
0E00
0E00
ENDCHAR
STARTCHAR 0025
ENCODING 37
SWIDTH 480 0
DWIDTH 16 0
BBX 12 24 2 0
BITMAP
7870
FCE0
DCE0
DCE0
FDC0
79C0
01C0
0380
0380
0700
0700
0700
0E00
0E00
0E00
1C00
1C00
3800
39E0
3BF0
7370
7370
73F0
E1E0
ENDCHAR
STARTCHAR 0026
ENCODING 38
SWIDTH 480 0
DWIDTH 16 0
BBX 12 24 2 0
BITMAP
0F80
3FC0
3FE0
79E0
70E0
7000
7000
3800
3800
7C00
7C00
FE00
EE00
EE70
E770
E770
E7F0
E3F0
E3F0
E1F0
71E0
7FE0
3FE0
0FF0
ENDCHAR
STARTCHAR 0027
ENCODING 39
SWIDTH 270 0
DWIDTH 9 0
BBX 3 4 3 20
BITMAP
E0
E0
40
40
ENDCHAR
STARTCHAR 0028
ENCODING 40
SWIDTH 450 0
DWIDTH 15 0
BBX 6 23 4 0
BITMAP
18
1C
38
38
70
70
70
E0
E0
E0
E0
E0
E0
E0
E0
E0
70
70
70
38
38
1C
18
ENDCHAR
STARTCHAR 0029
ENCODING 41
SWIDTH 450 0
DWIDTH 15 0
BBX 6 23 5 0
BITMAP
E0
E0
70
70
38
38
38
1C
1C
1C
1C
1C
1C
1C
1C
3C
38
38
38
70
F0
E0
20
ENDCHAR
STARTCHAR 002A
ENCODING 42
SWIDTH 450 0
DWIDTH 15 0
BBX 10 10 2 17
BITMAP
0C00
0C00
6DC0
FFC0
3F00
3F00
FFC0
6DC0
0C00
0C00
ENDCHAR
STARTCHAR 002B
ENCODING 43
SWIDTH 450 0
DWIDTH 15 0
BBX 9 9 3 5
BITMAP
1C00
1C00
1C00
FF80
FF80
FF80
1C00
1C00
1C00
ENDCHAR
STARTCHAR 002C
ENCODING 44
SWIDTH 270 0
DWIDTH 9 0
BBX 3 5 3 -1
BITMAP
E0
E0
E0
40
40
ENDCHAR
STARTCHAR 002D
ENCODING 45
SWIDTH 450 0
DWIDTH 15 0
BBX 9 3 3 8
BITMAP
FF80
FF80
FF80
ENDCHAR
STARTCHAR 002E
ENCODING 46
SWIDTH 270 0
DWIDTH 9 0
BBX 3 3 3 1
BITMAP
E0
E0
E0
ENDCHAR
STARTCHAR 002F
ENCODING 47
SWIDTH 450 0
DWIDTH 15 0
BBX 11 24 2 0
BITMAP
00E0
01E0
01C0
01C0
03C0
0380
0380
0780
0700
0700
0F00
0E00
0E00
1E00
1C00
1C00
3C00
3800
3800
7800
7000
7000
F000
E000
ENDCHAR
STARTCHAR 0030
ENCODING 48
SWIDTH 480 0
DWIDTH 16 0
BBX 12 24 2 0
BITMAP
0F00
3FC0
7FE0
70E0
E070
E070
E070
E070
E070
E070
E070
E070
E070
E070
E070
E070
E070
E070
E070
E070
70E0
7FE0
3FC0
0F00
ENDCHAR
STARTCHAR 0031
ENCODING 49
SWIDTH 450 0
DWIDTH 15 0
BBX 6 24 5 0
BITMAP
1C
1C
3C
7C
FC
FC
DC
1C
1C
1C
1C
1C
1C
1C
1C
1C
1C
1C
1C
1C
1C
1C
1C
1C
ENDCHAR
STARTCHAR 0032
ENCODING 50
SWIDTH 480 0
DWIDTH 16 0
BBX 12 24 2 0
BITMAP
0F00
3FC0
7FE0
70E0
E070
E070
E070
E070
C0E0
01E0
01C0
03C0
0780
0700
0F00
1E00
1E00
3C00
3800
7800
F000
FFF0
FFF0
FFF0
ENDCHAR
STARTCHAR 0033
ENCODING 51
SWIDTH 480 0
DWIDTH 16 0
BBX 12 24 2 -1
BITMAP
FFF0
FFF0
FFF0
00F0
01E0
01C0
03C0
0780
0700
0F00
0FC0
0FE0
01E0
00F0
0070
0070
0070
0070
0070
20F0
F1E0
7FE0
3FC0
0F00
ENDCHAR
STARTCHAR 0034
ENCODING 52
SWIDTH 480 0
DWIDTH 16 0
BBX 12 24 2 0
BITMAP
0E00
0E00
0E00
1C00
1C00
1C00
3C00
3800
3800
3800
7800
7000
7380
7380
F380
E380
FFF0
FFF0
FFF0
0380
0380
0380
0380
0380
ENDCHAR
STARTCHAR 0035
ENCODING 53
SWIDTH 480 0
DWIDTH 16 0
BBX 12 24 2 0
BITMAP
FFF0
FFF0
FFF0
E000
E000
E000
E000
E000
EF00
FFC0
FFE0
F0E0
E070
E070
0070
0070
0070
0070
E070
E070
F0E0
7FE0
3FC0
0F00
ENDCHAR
STARTCHAR 0036
ENCODING 54
SWIDTH 480 0
DWIDTH 16 0
BBX 12 24 2 0
BITMAP
0F00
3FC0
7FE0
70E0
E070
E070
E000
E000
E000
EF00
FFC0
FFE0
F0E0
E070
E070
E070
E070
E070
E070
E070
70E0
7FE0
3FC0
0F00
ENDCHAR
STARTCHAR 0037
ENCODING 55
SWIDTH 450 0
DWIDTH 15 0
BBX 12 24 2 0
BITMAP
FFF0
FFF0
FFF0
E0E0
E0E0
E0E0
01E0
01C0
01C0
01C0
03C0
0380
0380
0380
0780
0700
0700
0700
0F00
0E00
0E00
0E00
1E00
1C00
ENDCHAR
STARTCHAR 0038
ENCODING 56
SWIDTH 480 0
DWIDTH 16 0
BBX 12 24 2 0
BITMAP
0F00
3FC0
7FE0
70E0
E070
E070
E070
E070
E070
E070
70E0
7FC0
7FC0
7FE0
F0F0
E070
E070
E070
E070
E070
70E0
7FE0
3FC0
0F00
ENDCHAR
STARTCHAR 0039
ENCODING 57
SWIDTH 480 0
DWIDTH 16 0
BBX 12 24 2 0
BITMAP
0F00
3FC0
7FE0
70E0
E070
E070
E070
E070
E070
E070
E070
F0F0
7FF0
3FF0
1F70
0070
0070
0070
E070
E070
70E0
7FE0
3FC0
0F00
ENDCHAR
STARTCHAR 003A
ENCODING 58
SWIDTH 270 0
DWIDTH 9 0
BBX 3 13 3 4
BITMAP
E0
E0
E0
00
00
00
00
00
00
00
E0
E0
E0
ENDCHAR
STARTCHAR 003B
ENCODING 59
SWIDTH 270 0
DWIDTH 9 0
BBX 3 16 3 2
BITMAP
E0
E0
E0
00
00
00
00
00
00
00
00
E0
E0
E0
40
40
ENDCHAR
STARTCHAR 003C
ENCODING 60
SWIDTH 450 0
DWIDTH 15 0
BBX 7 14 4 5
BITMAP
02
06
1E
3C
78
E0
C0
E0
F0
78
1C
0E
06
02
ENDCHAR
STARTCHAR 003D
ENCODING 61
SWIDTH 420 0
DWIDTH 14 0
BBX 10 9 2 4
BITMAP
FFC0
FFC0
FFC0
0000
0000
0000
FFC0
FFC0
FFC0
ENDCHAR
STARTCHAR 003E
ENCODING 62
SWIDTH 450 0
DWIDTH 15 0
BBX 7 14 4 5
BITMAP
80
C0
F0
78
3C
0E
06
0E
1E
3C
70
E0
C0
80
ENDCHAR
STARTCHAR 003F
ENCODING 63
SWIDTH 480 0
DWIDTH 16 0
BBX 12 24 2 0
BITMAP
0F00
3FC0
7FE0
70E0
E070
E070
0070
0070
00E0
01E0
03C0
0780
0F00
0E00
0E00
0E00
0E00
0E00
0E00
0E00
0000
0E00
0E00
0E00
ENDCHAR
STARTCHAR 0040
ENCODING 64
SWIDTH 750 0
DWIDTH 25 0
BBX 21 28 2 -5
BITMAP
01FC00
07FF00
0FFF80
1F07C0
3C01E0
7800F0
70FE70
E1FE78
E3FE38
E38E38
E38E38
E38E38
E38E38
E38E38
E38E38
E38E38
E38E38
E38E38
E38E38
E3FFF0
F1FFF0
70FBE0
780000
3C0000
1F0000
0FFFC0
07FFC0
01FFC0
ENDCHAR
STARTCHAR 0041
ENCODING 65
SWIDTH 450 0
DWIDTH 15 0
BBX 11 24 2 0
BITMAP
0E00
0F00
0F00
0F00
0F00
1F00
1F00
1F80
1F80
1F80
1F80
3980
39C0
39C0
39C0
39C0
79C0
7FC0
7FE0
7FE0
70E0
7060
E060
E060
ENDCHAR
STARTCHAR 0042
ENCODING 66
SWIDTH 480 0
DWIDTH 16 0
BBX 12 24 2 0
BITMAP
FF00
FF80
FFC0
E1E0
E0E0
E0E0
E060
E0E0
E0E0
E1E0
FFC0
FF80
FFC0
E1E0
E0E0
E070
E070
E070
E070
E0E0
E1E0
FFC0
FF80
FF00
ENDCHAR
STARTCHAR 0043
ENCODING 67
SWIDTH 480 0
DWIDTH 16 0
BBX 12 24 2 0
BITMAP
1F00
3FC0
7FE0
F0E0
E070
E070
E000
E000
E000
E000
E000
E000
E000
E000
E000
E000
E000
E000
E070
E070
70E0
7FE0
3FC0
0F00
ENDCHAR
STARTCHAR 0044
ENCODING 68
SWIDTH 480 0
DWIDTH 16 0
BBX 12 24 2 0
BITMAP
FF00
FFC0
FFE0
E0E0
E070
E070
E070
E070
E070
E070
E070
E070
E070
E070
E070
E070
E070
E070
E070
E070
E0E0
FFE0
FFC0
FF00
ENDCHAR
STARTCHAR 0045
ENCODING 69
SWIDTH 450 0
DWIDTH 15 0
BBX 12 24 2 0
BITMAP
FFF0
FFF0
FFF0
E000
E000
E000
E000
E000
E000
E000
E000
FF80
FF80
FF80
E000
E000
E000
E000
E000
E000
E000
FFF0
FFF0
FFF0
ENDCHAR
STARTCHAR 0046
ENCODING 70
SWIDTH 450 0
DWIDTH 15 0
BBX 12 24 2 0
BITMAP
FFF0
FFF0
FFF0
E000
E000
E000
E000
E000
E000
E000
E000
FF80
FF80
FF80
E000
E000
E000
E000
E000
E000
E000
E000
E000
E000
ENDCHAR
STARTCHAR 0047
ENCODING 71
SWIDTH 480 0
DWIDTH 16 0
BBX 12 24 2 0
BITMAP
1F00
3FC0
7FE0
F0E0
E070
E070
E000
E000
E000
E000
E000
E000
E3F0
E3F0
E3F0
E070
E070
E070
E070
E070
70F0
7FF0
3FF0
0F70
ENDCHAR
STARTCHAR 0048
ENCODING 72
SWIDTH 480 0
DWIDTH 16 0
BBX 12 24 2 0
BITMAP
E070
E070
E070
E070
E070
E070
E070
E070
E070
E070
E070
FFF0
FFF0
FFF0
E070
E070
E070
E070
E070
E070
E070
E070
E070
E070
ENDCHAR
STARTCHAR 0049
ENCODING 73
SWIDTH 270 0
DWIDTH 9 0
BBX 3 24 3 0
BITMAP
E0
E0
E0
E0
E0
E0
E0
E0
E0
E0
E0
E0
E0
E0
E0
E0
E0
E0
E0
E0
E0
E0
E0
E0
ENDCHAR
STARTCHAR 004A
ENCODING 74
SWIDTH 480 0
DWIDTH 16 0
BBX 12 24 2 0
BITMAP
0070
0070
0070
0070
0070
0070
0070
0070
0070
0070
0070
0070
0070
0070
0070
0070
0070
0070
E070
E070
F0E0
7FE0
3FC0
0F80
ENDCHAR
STARTCHAR 004B
ENCODING 75
SWIDTH 450 0
DWIDTH 15 0
BBX 11 24 2 0
BITMAP
E0E0
E1E0
E1C0
E3C0
E380
E700
EF00
EE00
FE00
FC00
F800
F800
F800
F800
FC00
FE00
EE00
EF00
E700
E380
E3C0
E1C0
E1E0
E0E0
ENDCHAR
STARTCHAR 004C
ENCODING 76
SWIDTH 450 0
DWIDTH 15 0
BBX 12 24 2 0
BITMAP
E000
E000
E000
E000
E000
E000
E000
E000
E000
E000
E000
E000
E000
E000
E000
E000
E000
E000
E000
E000
E000
FFF0
FFF0
FFF0
ENDCHAR
STARTCHAR 004D
ENCODING 77
SWIDTH 480 0
DWIDTH 16 0
BBX 12 24 2 0
BITMAP
E070
F0F0
F0F0
F0F0
F9F0
F9F0
F9F0
FFF0
FFF0
FFF0
FFF0
EF70
EF70
EF70
E670
E670
E670
E070
E070
E070
E070
E070
E070
E070
ENDCHAR
STARTCHAR 004E
ENCODING 78
SWIDTH 480 0
DWIDTH 16 0
BBX 12 24 2 0
BITMAP
E070
F070
F070
F070
F870
F870
FC70
FC70
FC70
FE70
EE70
EE70
E770
E770
E7F0
E3F0
E3F0
E3F0
E1F0
E1F0
E0F0
E0F0
E0F0
E070
ENDCHAR
STARTCHAR 004F
ENCODING 79
SWIDTH 480 0
DWIDTH 16 0
BBX 12 24 2 0
BITMAP
0F00
3FC0
7FE0
70E0
E070
E070
E070
E070
E070
E070
E070
E070
E070
E070
E070
E070
E070
E070
E070
E070
70E0
7FE0
3FC0
0F00
ENDCHAR
STARTCHAR 0050
ENCODING 80
SWIDTH 480 0
DWIDTH 16 0
BBX 12 24 2 0
BITMAP
FE00
FF80
FFC0
E1E0
E0E0
E070
E070
E070
E070
E070
E0E0
E1E0
FFC0
FF80
FE00
E000
E000
E000
E000
E000
E000
E000
E000
E000
ENDCHAR
STARTCHAR 0051
ENCODING 81
SWIDTH 480 0
DWIDTH 16 0
BBX 12 24 2 0
BITMAP
1F00
3FC0
7FE0
F0E0
E070
E070
E070
E070
E070
E070
E070
E070
E070
E070
E070
E070
E070
E070
E070
E070
70E0
7FE0
3FE0
0F70
ENDCHAR
STARTCHAR 0052
ENCODING 82
SWIDTH 480 0
DWIDTH 16 0
BBX 12 24 2 0
BITMAP
FE00
FF80
FFC0
E1E0
E0E0
E070
E070
E070
E070
E070
E0E0
E1C0
FFC0
FF00
FF80
E380
E380
E3C0
E1C0
E1C0
E0E0
E0E0
E0E0
E070
ENDCHAR
STARTCHAR 0053
ENCODING 83
SWIDTH 480 0
DWIDTH 16 0
BBX 12 24 2 0
BITMAP
1F00
3FC0
7FE0
70E0
E070
E070
E000
E000
7000
7800
3C00
1F00
0F80
07C0
01E0
00E0
0070
0070
E070
E070
F0E0
7FE0
3FC0
0F00
ENDCHAR
STARTCHAR 0054
ENCODING 84
SWIDTH 480 0
DWIDTH 16 0
BBX 12 24 2 0
BITMAP
FFF0
FFF0
FFF0
0E00
0E00
0E00
0E00
0E00
0E00
0E00
0E00
0E00
0E00
0E00
0E00
0E00
0E00
0E00
0E00
0E00
0E00
0E00
0E00
0E00
ENDCHAR
STARTCHAR 0055
ENCODING 85
SWIDTH 480 0
DWIDTH 16 0
BBX 12 24 2 0
BITMAP
E070
E070
E070
E070
E070
E070
E070
E070
E070
E070
E070
E070
E070
E070
E070
E070
E070
E070
E070
E070
70E0
7FE0
3FC0
0F00
ENDCHAR
STARTCHAR 0056
ENCODING 86
SWIDTH 450 0
DWIDTH 15 0
BBX 11 24 2 0
BITMAP
E0E0
E0E0
E0E0
70E0
70E0
70E0
71C0
71C0
39C0
39C0
39C0
39C0
3B80
1B80
1F80
1F80
1F80
1F80
0F00
0F00
0F00
0F00
0F00
0F00
ENDCHAR
STARTCHAR 0057
ENCODING 87
SWIDTH 420 0
DWIDTH 14 0
BBX 10 24 2 0
BITMAP
E1C0
E1C0
E1C0
E1C0
E1C0
E1C0
E1C0
E1C0
E1C0
E9C0
EDC0
EDC0
EDC0
FDC0
FFC0
FFC0
FFC0
FFC0
FFC0
FFC0
F3C0
F3C0
F3C0
E1C0
ENDCHAR
STARTCHAR 0058
ENCODING 88
SWIDTH 450 0
DWIDTH 15 0
BBX 11 24 2 0
BITMAP
E0E0
E0E0
E1C0
71C0
71C0
7380
7380
3B80
3B80
3F00
1F00
1F00
1F00
1F00
3F00
3B80
3B80
7380
7380
71C0
71C0
E1C0
E0E0
E0E0
ENDCHAR
STARTCHAR 0059
ENCODING 89
SWIDTH 450 0
DWIDTH 15 0
BBX 11 24 2 0
BITMAP
E0E0
E0E0
70E0
71C0
71C0
71C0
3B80
3B80
3F80
3F00
1F00
1F00
1E00
1E00
1C00
1C00
1C00
3800
3800
3800
7000
7000
F000
E000
ENDCHAR
STARTCHAR 005A
ENCODING 90
SWIDTH 480 0
DWIDTH 16 0
BBX 12 24 2 0
BITMAP
FFF0
FFF0
FFF0
00F0
00E0
01E0
01C0
03C0
0380
0380
0700
0700
0E00
0E00
1C00
1C00
3C00
3800
7800
7000
F000
FFF0
FFF0
FFF0
ENDCHAR
STARTCHAR 005B
ENCODING 91
SWIDTH 450 0
DWIDTH 15 0
BBX 7 24 4 0
BITMAP
FE
FE
FE
E0
E0
E0
E0
E0
E0
E0
E0
E0
E0
E0
E0
E0
E0
E0
E0
E0
E0
FE
FE
FE
ENDCHAR
STARTCHAR 005C
ENCODING 92
SWIDTH 450 0
DWIDTH 15 0
BBX 11 24 2 0
BITMAP
E000
F000
7000
7000
7800
3800
3800
1C00
1C00
1C00
0E00
0E00
0E00
0700
0700
0700
0380
0380
0380
01C0
01C0
01E0
00E0
00E0
ENDCHAR
STARTCHAR 005D
ENCODING 93
SWIDTH 450 0
DWIDTH 15 0
BBX 7 24 4 0
BITMAP
FE
FE
FE
0E
0E
0E
0E
0E
0E
0E
0E
0E
0E
0E
0E
0E
0E
0E
0E
0E
0E
FE
FE
FE
ENDCHAR
STARTCHAR 005E
ENCODING 94
SWIDTH 450 0
DWIDTH 15 0
BBX 9 4 3 25
BITMAP
3C00
3E00
7700
E380
ENDCHAR
STARTCHAR 005F
ENCODING 95
SWIDTH 450 0
DWIDTH 15 0
BBX 15 2 0 -2
BITMAP
FFFE
FFFE
ENDCHAR
STARTCHAR 0060
ENCODING 96
SWIDTH 450 0
DWIDTH 15 0
BBX 5 5 5 23
BITMAP
E0
E0
70
30
18
ENDCHAR
STARTCHAR 0061
ENCODING 97
SWIDTH 510 0
DWIDTH 17 0
BBX 14 18 2 0
BITMAP
0F80
1FC0
3FE0
78F0
7070
7070
0070
0070
1FF0
7FF0
7FF0
F070
E070
E070
F0F0
7FFC
7FFC
1F9C
ENDCHAR
STARTCHAR 0062
ENCODING 98
SWIDTH 480 0
DWIDTH 16 0
BBX 12 24 2 0
BITMAP
E000
E000
E000
E000
E000
E000
EF00
FFC0
FFE0
F0E0
E070
E070
E070
E070
E070
E070
E070
E070
E070
E070
F0E0
FFE0
FFC0
EF00
ENDCHAR
STARTCHAR 0063
ENCODING 99
SWIDTH 480 0
DWIDTH 16 0
BBX 12 18 2 0
BITMAP
0F00
3FC0
7FE0
F0E0
E070
E070
E000
E000
E000
E000
E000
E000
E070
E070
F0E0
7FE0
3FC0
0F00
ENDCHAR
STARTCHAR 0064
ENCODING 100
SWIDTH 480 0
DWIDTH 16 0
BBX 12 24 2 0
BITMAP
0070
0070
0070
0070
0070
0070
0F70
3FF0
7FF0
70F0
E070
E070
E070
E070
E070
E070
E070
E070
E070
E070
70F0
7FF0
3FF0
0F70
ENDCHAR
STARTCHAR 0065
ENCODING 101
SWIDTH 480 0
DWIDTH 16 0
BBX 12 18 2 0
BITMAP
0F00
3FC0
7FE0
70E0
E070
E070
E070
FFF0
FFF0
FFF0
E000
E000
E000
E040
F0E0
7FE0
3FC0
0F00
ENDCHAR
STARTCHAR 0066
ENCODING 102
SWIDTH 480 0
DWIDTH 16 0
BBX 12 24 2 0
BITMAP
0780
0FE0
1FE0
1C70
1C70
1C00
1C00
1C00
1C00
FFC0
FFC0
FFC0
1C00
1C00
1C00
1C00
1C00
1C00
1C00
1C00
1C00
1C00
1C00
1C00
ENDCHAR
STARTCHAR 0067
ENCODING 103
SWIDTH 480 0
DWIDTH 16 0
BBX 12 24 2 -6
BITMAP
0FF0
3FF0
7FF0
F0E0
E070
E070
E070
E070
F0E0
7FE0
3FC0
3F00
7000
7000
7000
3F80
7FE0
FFE0
E070
E070
E070
FFE0
7FE0
3FC0
ENDCHAR
STARTCHAR 0068
ENCODING 104
SWIDTH 480 0
DWIDTH 16 0
BBX 12 24 2 0
BITMAP
E000
E000
E000
E000
E000
E000
EF00
FFC0
FFE0
F0E0
E070
E070
E070
E070
E070
E070
E070
E070
E070
E070
E070
E070
E070
E070
ENDCHAR
STARTCHAR 0069
ENCODING 105
SWIDTH 270 0
DWIDTH 9 0
BBX 5 24 2 0
BITMAP
E0
E0
E0
00
00
00
E0
E0
E0
E0
E0
E0
E0
E0
E0
E0
E0
E0
E0
E0
E0
F8
78
38
ENDCHAR
STARTCHAR 006A
ENCODING 106
SWIDTH 450 0
DWIDTH 15 0
BBX 9 30 3 -6
BITMAP
0380
0380
0380
0000
0000
0000
0380
0380
0380
0380
0380
0380
0380
0380
0380
0380
0380
0380
0380
0380
0380
0380
0380
0380
0380
E380
E380
FF00
7F00
3C00
ENDCHAR
STARTCHAR 006B
ENCODING 107
SWIDTH 450 0
DWIDTH 15 0
BBX 11 24 2 0
BITMAP
E000
E000
E000
E000
E000
E000
E0E0
E1E0
E1C0
E3C0
E380
E780
E700
EF00
EE00
FE00
FF00
FF00
FF80
F380
F3C0
E1C0
E0E0
E0E0
ENDCHAR
STARTCHAR 006C
ENCODING 108
SWIDTH 300 0
DWIDTH 10 0
BBX 6 24 2 0
BITMAP
E0
E0
E0
E0
E0
E0
E0
E0
E0
E0
E0
E0
E0
E0
E0
E0
E0
E0
E0
E0
E0
FC
7C
3C
ENDCHAR
STARTCHAR 006D
ENCODING 109
SWIDTH 750 0
DWIDTH 25 0
BBX 21 18 2 0
BITMAP
EF0780
FFDFE0
FFFFF0
F0F870
E07038
E07038
E07038
E07038
E07038
E07038
E07038
E07038
E07038
E07038
E07038
E07038
E07038
E07038
ENDCHAR
STARTCHAR 006E
ENCODING 110
SWIDTH 480 0
DWIDTH 16 0
BBX 12 18 2 0
BITMAP
EF00
FFC0
FFE0
F0E0
E070
E070
E070
E070
E070
E070
E070
E070
E070
E070
E070
E070
E070
E070
ENDCHAR
STARTCHAR 006F
ENCODING 111
SWIDTH 480 0
DWIDTH 16 0
BBX 12 18 2 0
BITMAP
0F00
3FC0
7FE0
70E0
E070
E070
E070
E070
E070
E070
E070
E070
E070
E070
F0E0
7FE0
3FC0
0F00
ENDCHAR
STARTCHAR 0070
ENCODING 112
SWIDTH 480 0
DWIDTH 16 0
BBX 12 24 2 -6
BITMAP
EF00
FFC0
FFE0
F0E0
E070
E070
E070
E070
E070
E070
E070
E070
E070
E070
F0E0
FFE0
FFC0
EF00
E000
E000
E000
E000
E000
E000
ENDCHAR
STARTCHAR 0071
ENCODING 113
SWIDTH 480 0
DWIDTH 16 0
BBX 12 24 2 -6
BITMAP
0F70
3FF0
7FF0
70F0
E070
E070
E070
E070
E070
E070
E070
E070
E070
E070
70F0
7FF0
3FF0
0F70
0070
0070
0070
0070
0070
0070
ENDCHAR
STARTCHAR 0072
ENCODING 114
SWIDTH 390 0
DWIDTH 13 0
BBX 9 18 2 0
BITMAP
EF80
FF80
FF80
FB80
F380
E000
E000
E000
E000
E000
E000
E000
E000
E000
E000
E000
E000
E000
ENDCHAR
STARTCHAR 0073
ENCODING 115
SWIDTH 420 0
DWIDTH 14 0
BBX 10 18 2 0
BITMAP
1E00
7F80
7F80
F3C0
E1C0
E1C0
F000
7E00
7F00
1F80
03C0
01C0
E1C0
E1C0
F3C0
7F80
3F00
1E00
ENDCHAR
STARTCHAR 0074
ENCODING 116
SWIDTH 270 0
DWIDTH 9 0
BBX 7 24 1 0
BITMAP
70
70
70
70
70
70
FE
FE
FE
70
70
70
70
70
70
70
70
70
70
70
70
3E
3E
1E
ENDCHAR
STARTCHAR 0075
ENCODING 117
SWIDTH 480 0
DWIDTH 16 0
BBX 12 18 2 0
BITMAP
E070
E070
E070
E070
E070
E070
E070
E070
E070
E070
E070
E070
E070
E070
70F0
7FF0
3FF0
0F70
ENDCHAR
STARTCHAR 0076
ENCODING 118
SWIDTH 450 0
DWIDTH 15 0
BBX 11 18 2 0
BITMAP
E0E0
E0E0
E0E0
E0E0
E0E0
71C0
71C0
71C0
71C0
71C0
3B80
3B80
3B80
3B80
3B80
1F00
1F00
1F00
ENDCHAR
STARTCHAR 0077
ENCODING 119
SWIDTH 720 0
DWIDTH 24 0
BBX 20 18 2 0
BITMAP
E0E070
E0F070
E0F070
E0F070
E1F0E0
71F0E0
71F8E0
71F8E0
71F8E0
71B9C0
3BB9C0
3B9DC0
3B9DC0
3B9DC0
3B9F80
1F1F80
1F0F80
1F0F80
ENDCHAR
STARTCHAR 0078
ENCODING 120
SWIDTH 450 0
DWIDTH 15 0
BBX 11 18 2 0
BITMAP
E0E0
E0E0
71C0
71C0
3B80
3B80
1F00
1F00
0E00
0E00
1F00
1F00
3B80
3B80
71C0
71C0
E0E0
E0E0
ENDCHAR
STARTCHAR 0079
ENCODING 121
SWIDTH 450 0
DWIDTH 15 0
BBX 11 24 2 -6
BITMAP
70E0
70E0
70E0
70E0
39E0
39C0
39C0
39C0
39C0
1DC0
1F80
1F80
1F80
1F80
0F80
0F00
0F00
0F00
0F00
0700
4E00
FE00
FC00
7800
ENDCHAR
STARTCHAR 007A
ENCODING 122
SWIDTH 480 0
DWIDTH 16 0
BBX 12 18 2 0
BITMAP
FFF0
FFF0
FFF0
00F0
01E0
01C0
03C0
0780
0F00
0F00
1E00
3C00
3800
7800
F000
FFF0
FFF0
FFF0
ENDCHAR
STARTCHAR 007B
ENCODING 123
SWIDTH 450 0
DWIDTH 15 0
BBX 9 28 3 -5
BITMAP
0380
0780
0F80
1E00
1C00
1C00
1C00
1C00
1C00
1C00
1C00
3800
F800
C000
F000
3800
1C00
1C00
1C00
1C00
1C00
1C00
1C00
1C00
1E00
0F80
0780
0380
ENDCHAR
STARTCHAR 007C
ENCODING 124
SWIDTH 450 0
DWIDTH 15 0
BBX 3 30 6 -3
BITMAP
E0
E0
E0
E0
E0
E0
E0
E0
E0
E0
E0
E0
E0
E0
E0
E0
E0
E0
E0
E0
E0
E0
E0
E0
E0
E0
E0
E0
E0
E0
ENDCHAR
STARTCHAR 007D
ENCODING 125
SWIDTH 450 0
DWIDTH 15 0
BBX 9 28 3 -5
BITMAP
E000
F000
F800
3C00
1C00
1C00
1C00
1C00
1C00
1C00
1C00
1E00
0F80
0180
0F80
0E00
1C00
1C00
1C00
1C00
1C00
1C00
1C00
1C00
3C00
F800
F000
E000
ENDCHAR
STARTCHAR 007E
ENCODING 126
SWIDTH 450 0
DWIDTH 15 0
BBX 13 4 1 7
BITMAP
E3E0
FFF0
7FF8
3E30
ENDCHAR
STARTCHAR 007F
ENCODING 127
SWIDTH 450 0
DWIDTH 15 0
BBX 0 0 0 0
BITMAP
ENDCHAR
STARTCHAR 0080
ENCODING 128
SWIDTH 450 0
DWIDTH 15 0
BBX 0 0 0 0
BITMAP
ENDCHAR
STARTCHAR 0081
ENCODING 129
SWIDTH 450 0
DWIDTH 15 0
BBX 0 0 0 0
BITMAP
ENDCHAR
STARTCHAR 0082
ENCODING 130
SWIDTH 450 0
DWIDTH 15 0
BBX 0 0 0 0
BITMAP
ENDCHAR
STARTCHAR 0083
ENCODING 131
SWIDTH 450 0
DWIDTH 15 0
BBX 0 0 0 0
BITMAP
ENDCHAR
STARTCHAR 0084
ENCODING 132
SWIDTH 450 0
DWIDTH 15 0
BBX 0 0 0 0
BITMAP
ENDCHAR
STARTCHAR 0085
ENCODING 133
SWIDTH 450 0
DWIDTH 15 0
BBX 0 0 0 0
BITMAP
ENDCHAR
STARTCHAR 0086
ENCODING 134
SWIDTH 450 0
DWIDTH 15 0
BBX 0 0 0 0
BITMAP
ENDCHAR
STARTCHAR 0087
ENCODING 135
SWIDTH 450 0
DWIDTH 15 0
BBX 0 0 0 0
BITMAP
ENDCHAR
STARTCHAR 0088
ENCODING 136
SWIDTH 450 0
DWIDTH 15 0
BBX 0 0 0 0
BITMAP
ENDCHAR
STARTCHAR 0089
ENCODING 137
SWIDTH 450 0
DWIDTH 15 0
BBX 0 0 0 0
BITMAP
ENDCHAR
STARTCHAR 008A
ENCODING 138
SWIDTH 450 0
DWIDTH 15 0
BBX 0 0 0 0
BITMAP
ENDCHAR
STARTCHAR 008B
ENCODING 139
SWIDTH 450 0
DWIDTH 15 0
BBX 0 0 0 0
BITMAP
ENDCHAR
STARTCHAR 008C
ENCODING 140
SWIDTH 450 0
DWIDTH 15 0
BBX 0 0 0 0
BITMAP
ENDCHAR
STARTCHAR 008D
ENCODING 141
SWIDTH 450 0
DWIDTH 15 0
BBX 0 0 0 0
BITMAP
ENDCHAR
STARTCHAR 008E
ENCODING 142
SWIDTH 450 0
DWIDTH 15 0
BBX 0 0 0 0
BITMAP
ENDCHAR
STARTCHAR 008F
ENCODING 143
SWIDTH 450 0
DWIDTH 15 0
BBX 0 0 0 0
BITMAP
ENDCHAR
STARTCHAR 0090
ENCODING 144
SWIDTH 450 0
DWIDTH 15 0
BBX 0 0 0 0
BITMAP
ENDCHAR
STARTCHAR 0091
ENCODING 145
SWIDTH 450 0
DWIDTH 15 0
BBX 0 0 0 0
BITMAP
ENDCHAR
STARTCHAR 0092
ENCODING 146
SWIDTH 450 0
DWIDTH 15 0
BBX 0 0 0 0
BITMAP
ENDCHAR
STARTCHAR 0093
ENCODING 147
SWIDTH 450 0
DWIDTH 15 0
BBX 0 0 0 0
BITMAP
ENDCHAR
STARTCHAR 0094
ENCODING 148
SWIDTH 450 0
DWIDTH 15 0
BBX 0 0 0 0
BITMAP
ENDCHAR
STARTCHAR 0095
ENCODING 149
SWIDTH 450 0
DWIDTH 15 0
BBX 0 0 0 0
BITMAP
ENDCHAR
STARTCHAR 0096
ENCODING 150
SWIDTH 450 0
DWIDTH 15 0
BBX 0 0 0 0
BITMAP
ENDCHAR
STARTCHAR 0097
ENCODING 151
SWIDTH 450 0
DWIDTH 15 0
BBX 0 0 0 0
BITMAP
ENDCHAR
STARTCHAR 0098
ENCODING 152
SWIDTH 450 0
DWIDTH 15 0
BBX 0 0 0 0
BITMAP
ENDCHAR
STARTCHAR 0099
ENCODING 153
SWIDTH 450 0
DWIDTH 15 0
BBX 0 0 0 0
BITMAP
ENDCHAR
STARTCHAR 009A
ENCODING 154
SWIDTH 450 0
DWIDTH 15 0
BBX 0 0 0 0
BITMAP
ENDCHAR
STARTCHAR 009B
ENCODING 155
SWIDTH 450 0
DWIDTH 15 0
BBX 0 0 0 0
BITMAP
ENDCHAR
STARTCHAR 009C
ENCODING 156
SWIDTH 450 0
DWIDTH 15 0
BBX 0 0 0 0
BITMAP
ENDCHAR
STARTCHAR 009D
ENCODING 157
SWIDTH 450 0
DWIDTH 15 0
BBX 0 0 0 0
BITMAP
ENDCHAR
STARTCHAR 009E
ENCODING 158
SWIDTH 450 0
DWIDTH 15 0
BBX 0 0 0 0
BITMAP
ENDCHAR
STARTCHAR 009F
ENCODING 159
SWIDTH 450 0
DWIDTH 15 0
BBX 0 0 0 0
BITMAP
ENDCHAR
STARTCHAR 00A0
ENCODING 160
SWIDTH 450 0
DWIDTH 15 0
BBX 0 0 0 0
BITMAP
ENDCHAR
STARTCHAR 00A1
ENCODING 161
SWIDTH 450 0
DWIDTH 15 0
BBX 0 0 0 0
BITMAP
ENDCHAR
STARTCHAR 00A2
ENCODING 162
SWIDTH 450 0
DWIDTH 15 0
BBX 0 0 0 0
BITMAP
ENDCHAR
STARTCHAR 00A3
ENCODING 163
SWIDTH 450 0
DWIDTH 15 0
BBX 11 24 2 0
BITMAP
0F00
1FC0
3FC0
79E0
70E0
7000
7000
7000
7000
7000
7000
FF00
FF00
FF00
7000
7000
7000
7000
7000
7000
7000
FFE0
FFE0
FFE0
ENDCHAR
STARTCHAR 00A4
ENCODING 164
SWIDTH 450 0
DWIDTH 15 0
BBX 0 0 0 0
BITMAP
ENDCHAR
STARTCHAR 00A5
ENCODING 165
SWIDTH 450 0
DWIDTH 15 0
BBX 0 0 0 0
BITMAP
ENDCHAR
STARTCHAR 00A6
ENCODING 166
SWIDTH 450 0
DWIDTH 15 0
BBX 0 0 0 0
BITMAP
ENDCHAR
STARTCHAR 00A7
ENCODING 167
SWIDTH 840 0
DWIDTH 28 0
BBX 24 18 2 0
BITMAP
03C078
038070
0780F0
0781F0
0FC1F8
0FC3F8
1DE3BC
3CE79C
38F71E
787F0E
703E07
F03E07
F03E07
F03E07
F87F0E
BFF7FE
9FE3FC
0781F0
ENDCHAR
STARTCHAR 00A8
ENCODING 168
SWIDTH 450 0
DWIDTH 15 0
BBX 0 0 0 0
BITMAP
ENDCHAR
STARTCHAR 00A9
ENCODING 169
SWIDTH 750 0
DWIDTH 25 0
BBX 21 24 2 0
BITMAP
01FC00
07FF00
0FFF80
1F07C0
3C01E0
78F8F0
71FC70
F3FE70
E78F38
E70738
E00738
E00738
E00738
E00738
E70738
E78F38
F3FE78
71FC70
78F8F0
3C01E0
1F07C0
0FFF80
07FF00
01FC00
ENDCHAR
STARTCHAR 00AA
ENCODING 170
SWIDTH 450 0
DWIDTH 15 0
BBX 0 0 0 0
BITMAP
ENDCHAR
STARTCHAR 00AB
ENCODING 171
SWIDTH 450 0
DWIDTH 15 0
BBX 12 12 2 6
BITMAP
0C30
1C70
3CF0
73C0
E780
C700
E700
F3C0
79E0
1CF0
0C30
0410
ENDCHAR
STARTCHAR 00AC
ENCODING 172
SWIDTH 450 0
DWIDTH 15 0
BBX 0 0 0 0
BITMAP
ENDCHAR
STARTCHAR 00AD
ENCODING 173
SWIDTH 450 0
DWIDTH 15 0
BBX 0 0 0 0
BITMAP
ENDCHAR
STARTCHAR 00AE
ENCODING 174
SWIDTH 450 0
DWIDTH 15 0
BBX 0 0 0 0
BITMAP
ENDCHAR
STARTCHAR 00AF
ENCODING 175
SWIDTH 450 0
DWIDTH 15 0
BBX 0 0 0 0
BITMAP
ENDCHAR
STARTCHAR 00B0
ENCODING 176
SWIDTH 270 0
DWIDTH 9 0
BBX 5 6 2 22
BITMAP
70
F8
D8
D8
F8
70
ENDCHAR
STARTCHAR 00B1
ENCODING 177
SWIDTH 450 0
DWIDTH 15 0
BBX 0 0 0 0
BITMAP
ENDCHAR
STARTCHAR 00B2
ENCODING 178
SWIDTH 450 0
DWIDTH 15 0
BBX 0 0 0 0
BITMAP
ENDCHAR
STARTCHAR 00B3
ENCODING 179
SWIDTH 450 0
DWIDTH 15 0
BBX 0 0 0 0
BITMAP
ENDCHAR
STARTCHAR 00B4
ENCODING 180
SWIDTH 450 0
DWIDTH 15 0
BBX 0 0 0 0
BITMAP
ENDCHAR
STARTCHAR 00B5
ENCODING 181
SWIDTH 480 0
DWIDTH 16 0
BBX 12 23 2 -5
BITMAP
E070
E070
E070
E070
E070
E070
E070
E070
E070
E070
E070
E070
E070
E070
F0F0
FFF0
FFF0
EF70
E000
E000
E000
E000
E000
ENDCHAR
STARTCHAR 00B6
ENCODING 182
SWIDTH 450 0
DWIDTH 15 0
BBX 0 0 0 0
BITMAP
ENDCHAR
STARTCHAR 00B7
ENCODING 183
SWIDTH 450 0
DWIDTH 15 0
BBX 0 0 0 0
BITMAP
ENDCHAR
STARTCHAR 00B8
ENCODING 184
SWIDTH 450 0
DWIDTH 15 0
BBX 0 0 0 0
BITMAP
ENDCHAR
STARTCHAR 00B9
ENCODING 185
SWIDTH 450 0
DWIDTH 15 0
BBX 0 0 0 0
BITMAP
ENDCHAR
STARTCHAR 00BA
ENCODING 186
SWIDTH 450 0
DWIDTH 15 0
BBX 0 0 0 0
BITMAP
ENDCHAR
STARTCHAR 00BB
ENCODING 187
SWIDTH 450 0
DWIDTH 15 0
BBX 12 12 2 6
BITMAP
8600
C700
E380
79E0
3CF0
1C70
1C70
39E0
73C0
E780
C700
8400
ENDCHAR
STARTCHAR 00BC
ENCODING 188
SWIDTH 450 0
DWIDTH 15 0
BBX 0 0 0 0
BITMAP
ENDCHAR
STARTCHAR 00BD
ENCODING 189
SWIDTH 450 0
DWIDTH 15 0
BBX 0 0 0 0
BITMAP
ENDCHAR
STARTCHAR 00BE
ENCODING 190
SWIDTH 450 0
DWIDTH 15 0
BBX 0 0 0 0
BITMAP
ENDCHAR
STARTCHAR 00BF
ENCODING 191
SWIDTH 450 0
DWIDTH 15 0
BBX 0 0 0 0
BITMAP
ENDCHAR
STARTCHAR 00C0
ENCODING 192
SWIDTH 480 0
DWIDTH 16 0
BBX 12 29 2 0
BITMAP
1C00
0E00
0700
0300
0180
0F00
0F00
0F00
0F00
0F00
1F80
1F80
1F80
1F80
1F80
1F80
39C0
39C0
39C0
39C0
39C0
79E0
7FE0
7FE0
7FE0
70E0
7060
E070
E070
ENDCHAR
STARTCHAR 00C1
ENCODING 193
SWIDTH 480 0
DWIDTH 16 0
BBX 12 29 2 0
BITMAP
0380
0380
0700
0E00
0C00
0F00
0F00
0F00
0F00
0F00
1F80
1F80
1F80
1F80
1F80
1F80
39C0
39C0
39C0
39C0
39C0
79E0
7FE0
7FE0
7FE0
70E0
7060
E070
E070
ENDCHAR
STARTCHAR 00C2
ENCODING 194
SWIDTH 480 0
DWIDTH 16 0
BBX 12 29 2 0
BITMAP
0E00
0F00
1F80
39C0
30C0
0F00
0F00
0F00
0F00
0F00
1F80
1F80
1F80
1F80
1F80
1F80
39C0
39C0
39C0
39C0
39C0
79E0
7FE0
7FE0
7FE0
70E0
7060
E070
E070
ENDCHAR
STARTCHAR 00C3
ENCODING 195
SWIDTH 450 0
DWIDTH 15 0
BBX 0 0 0 0
BITMAP
ENDCHAR
STARTCHAR 00C4
ENCODING 196
SWIDTH 450 0
DWIDTH 15 0
BBX 11 29 2 0
BITMAP
3B80
3B80
3B80
0000
0000
0E00
0E00
1E00
1F00
1F00
1F00
1F00
3F00
3F80
3B80
3B80
3B80
3B80
7380
71C0
71C0
71C0
7FC0
FFC0
FFE0
E0E0
E0E0
E0E0
C0E0
ENDCHAR
STARTCHAR 00C5
ENCODING 197
SWIDTH 450 0
DWIDTH 15 0
BBX 0 0 0 0
BITMAP
ENDCHAR
STARTCHAR 00C6
ENCODING 198
SWIDTH 480 0
DWIDTH 16 0
BBX 20 24 -2 0
BITMAP
00FFF0
00FFF0
01FFF0
01F800
01F800
03B800
03B800
03B800
073800
073800
073800
0F3FE0
0E3FE0
0E3FE0
1E3800
1C3800
1FF800
3FF800
3FF800
383800
703800
703FF0
703FF0
E03FF0
ENDCHAR
STARTCHAR 00C7
ENCODING 199
SWIDTH 450 0
DWIDTH 15 0
BBX 0 0 0 0
BITMAP
ENDCHAR
STARTCHAR 00C8
ENCODING 200
SWIDTH 450 0
DWIDTH 15 0
BBX 12 29 2 0
BITMAP
1C00
0E00
0600
0700
0380
FFF0
FFF0
FFF0
E000
E000
E000
E000
E000
E000
E000
E000
FF80
FF80
FF80
E000
E000
E000
E000
E000
E000
E000
FFF0
FFF0
FFF0
ENDCHAR
STARTCHAR 00C9
ENCODING 201
SWIDTH 450 0
DWIDTH 15 0
BBX 12 29 2 0
BITMAP
0380
0700
0600
0C00
1C00
FFF0
FFF0
FFF0
E000
E000
E000
E000
E000
E000
E000
E000
FF80
FF80
FF80
E000
E000
E000
E000
E000
E000
E000
FFF0
FFF0
FFF0
ENDCHAR
STARTCHAR 00CA
ENCODING 202
SWIDTH 450 0
DWIDTH 15 0
BBX 12 29 2 0
BITMAP
0E00
0F00
1F00
3980
31C0
FFF0
FFF0
FFF0
E000
E000
E000
E000
E000
E000
E000
E000
FF80
FF80
FF80
E000
E000
E000
E000
E000
E000
E000
FFF0
FFF0
FFF0
ENDCHAR
STARTCHAR 00CB
ENCODING 203
SWIDTH 450 0
DWIDTH 15 0
BBX 12 29 2 0
BITMAP
3B80
3B80
3B80
0000
0000
FFF0
FFF0
FFF0
E000
E000
E000
E000
E000
E000
E000
E000
FF80
FF80
FF80
E000
E000
E000
E000
E000
E000
E000
FFF0
FFF0
FFF0
ENDCHAR
STARTCHAR 00CC
ENCODING 204
SWIDTH 450 0
DWIDTH 15 0
BBX 5 29 5 0
BITMAP
E0
60
70
38
18
70
70
70
70
70
70
70
70
70
70
70
70
70
70
70
70
70
70
70
70
70
70
70
70
ENDCHAR
STARTCHAR 00CD
ENCODING 205
SWIDTH 450 0
DWIDTH 15 0
BBX 6 29 5 0
BITMAP
1C
38
70
60
C0
70
70
70
70
70
70
70
70
70
70
70
70
70
70
70
70
70
70
70
70
70
70
70
70
ENDCHAR
STARTCHAR 00CE
ENCODING 206
SWIDTH 450 0
DWIDTH 15 0
BBX 9 29 3 0
BITMAP
1C00
3E00
3600
7300
E380
1C00
1C00
1C00
1C00
1C00
1C00
1C00
1C00
1C00
1C00
1C00
1C00
1C00
1C00
1C00
1C00
1C00
1C00
1C00
1C00
1C00
1C00
1C00
1C00
ENDCHAR
STARTCHAR 00CF
ENCODING 207
SWIDTH 450 0
DWIDTH 15 0
BBX 7 29 4 0
BITMAP
EE
EE
EE
00
00
38
38
38
38
38
38
38
38
38
38
38
38
38
38
38
38
38
38
38
38
38
38
38
38
ENDCHAR
STARTCHAR 00D0
ENCODING 208
SWIDTH 450 0
DWIDTH 15 0
BBX 0 0 0 0
BITMAP
ENDCHAR
STARTCHAR 00D1
ENCODING 209
SWIDTH 450 0
DWIDTH 15 0
BBX 0 0 0 0
BITMAP
ENDCHAR
STARTCHAR 00D2
ENCODING 210
SWIDTH 480 0
DWIDTH 16 0
BBX 12 29 2 0
BITMAP
1C00
0E00
0700
0300
0180
0F00
3FC0
7FE0
70E0
E070
E070
E070
E070
E070
E070
E070
E070
E070
E070
E070
E070
E070
E070
E070
E070
70E0
7FE0
3FC0
0F00
ENDCHAR
STARTCHAR 00D3
ENCODING 211
SWIDTH 480 0
DWIDTH 16 0
BBX 12 29 2 0
BITMAP
0380
0300
0700
0E00
0C00
0F00
3FC0
7FE0
70E0
E070
E070
E070
E070
E070
E070
E070
E070
E070
E070
E070
E070
E070
E070
E070
E070
70E0
7FE0
3FC0
0F00
ENDCHAR
STARTCHAR 00D4
ENCODING 212
SWIDTH 480 0
DWIDTH 16 0
BBX 12 29 2 0
BITMAP
0F00
0F00
1F80
39C0
30C0
0F00
3FC0
7FE0
70E0
E070
E070
E070
E070
E070
E070
E070
E070
E070
E070
E070
E070
E070
E070
E070
E070
70E0
7FE0
3FC0
0F00
ENDCHAR
STARTCHAR 00D5
ENCODING 213
SWIDTH 480 0
DWIDTH 16 0
BBX 12 24 2 0
BITMAP
0F00
3FC0
7FE0
70E0
E070
E070
E070
E070
E070
E070
E070
E070
E070
E070
E070
E070
E070
E070
E070
E070
70E0
7FE0
3FC0
0F00
ENDCHAR
STARTCHAR 00D6
ENCODING 214
SWIDTH 480 0
DWIDTH 16 0
BBX 12 29 2 0
BITMAP
3B80
3B80
3B80
0000
0000
0F00
3FC0
7FE0
70E0
E070
E070
E070
E070
E070
E070
E070
E070
E070
E070
E070
E070
E070
E070
E070
E070
70E0
7FE0
3FC0
0F00
ENDCHAR
STARTCHAR 00D7
ENCODING 215
SWIDTH 450 0
DWIDTH 15 0
BBX 0 0 0 0
BITMAP
ENDCHAR
STARTCHAR 00D8
ENCODING 216
SWIDTH 450 0
DWIDTH 15 0
BBX 0 0 0 0
BITMAP
ENDCHAR
STARTCHAR 00D9
ENCODING 217
SWIDTH 480 0
DWIDTH 16 0
BBX 12 29 2 0
BITMAP
1C00
0E00
0700
0300
0180
E070
E070
E070
E070
E070
E070
E070
E070
E070
E070
E070
E070
E070
E070
E070
E070
E070
E070
E070
E070
70E0
7FE0
3FC0
0F00
ENDCHAR
STARTCHAR 00DA
ENCODING 218
SWIDTH 480 0
DWIDTH 16 0
BBX 12 29 2 0
BITMAP
0380
0300
0700
0E00
0C00
E070
E070
E070
E070
E070
E070
E070
E070
E070
E070
E070
E070
E070
E070
E070
E070
E070
E070
E070
E070
70E0
7FE0
3FC0
0F00
ENDCHAR
STARTCHAR 00DB
ENCODING 219
SWIDTH 480 0
DWIDTH 16 0
BBX 12 29 2 0
BITMAP
0F00
0F00
1F80
39C0
30C0
E070
E070
E070
E070
E070
E070
E070
E070
E070
E070
E070
E070
E070
E070
E070
E070
E070
E070
E070
E070
70E0
7FE0
3FC0
0F00
ENDCHAR
STARTCHAR 00DC
ENCODING 220
SWIDTH 480 0
DWIDTH 16 0
BBX 12 29 2 0
BITMAP
3B80
3B80
3B80
0000
0000
E070
E070
E070
E070
E070
E070
E070
E070
E070
E070
E070
E070
E070
E070
E070
E070
E070
E070
E070
E070
70E0
7FE0
3FC0
0F00
ENDCHAR
STARTCHAR 00DD
ENCODING 221
SWIDTH 450 0
DWIDTH 15 0
BBX 0 0 0 0
BITMAP
ENDCHAR
STARTCHAR 00DE
ENCODING 222
SWIDTH 450 0
DWIDTH 15 0
BBX 0 0 0 0
BITMAP
ENDCHAR
STARTCHAR 00DF
ENCODING 223
SWIDTH 480 0
DWIDTH 16 0
BBX 12 24 2 0
BITMAP
1E00
7F00
7F80
F3C0
E1C0
E1C0
E1C0
E3C0
EF80
EFC0
EFE0
E0E0
E070
E070
E070
E070
E070
E070
E070
E070
E0E0
EFE0
EFC0
EF00
ENDCHAR
STARTCHAR 00E0
ENCODING 224
SWIDTH 510 0
DWIDTH 17 0
BBX 14 24 2 0
BITMAP
1C00
0E00
0700
0300
0000
0000
0F80
1FC0
3FE0
78F0
7070
7070
0070
0070
1FF0
7FF0
7FF0
F070
E070
E070
F0F0
7FFC
7FFC
1F9C
ENDCHAR
STARTCHAR 00E1
ENCODING 225
SWIDTH 510 0
DWIDTH 17 0
BBX 14 24 2 0
BITMAP
0380
0700
0E00
1C00
0000
0000
0F80
3FC0
3FE0
78F0
7070
7070
0070
0070
1FF0
7FF0
7FF0
F070
E070
E070
F0F0
7FFC
7FFC
1F9C
ENDCHAR
STARTCHAR 00E2
ENCODING 226
SWIDTH 510 0
DWIDTH 17 0
BBX 14 24 2 0
BITMAP
0E00
1F00
1B80
3180
0000
0000
0F80
1FC0
3FE0
78F0
7070
7070
0070
0070
1FF0
7FF0
7FF0
F070
E070
E070
F0F0
7FFC
7FFC
1F9C
ENDCHAR
STARTCHAR 00E3
ENCODING 227
SWIDTH 450 0
DWIDTH 15 0
BBX 0 0 0 0
BITMAP
ENDCHAR
STARTCHAR 00E4
ENCODING 228
SWIDTH 510 0
DWIDTH 17 0
BBX 14 23 2 1
BITMAP
3B80
3B80
3B80
0000
0000
0F80
1FC0
3FE0
78F0
7070
7070
0070
0070
1FF0
7FF0
7FF0
F070
E070
E070
F0F0
7FFC
7FFC
1F9C
ENDCHAR
STARTCHAR 00E5
ENCODING 229
SWIDTH 450 0
DWIDTH 15 0
BBX 0 0 0 0
BITMAP
ENDCHAR
STARTCHAR 00E6
ENCODING 230
SWIDTH 660 0
DWIDTH 22 0
BBX 18 18 2 0
BITMAP
1E3E00
7F7F00
7FFF80
F3E3C0
E1C1C0
01C1C0
01C1C0
3FFFC0
7FFFC0
FFFFC0
E1C000
E1C000
E1C000
E1C1C0
E3E3C0
FFFF80
7F7F00
3E3E00
ENDCHAR
STARTCHAR 00E7
ENCODING 231
SWIDTH 480 0
DWIDTH 16 0
BBX 12 22 2 -4
BITMAP
0F00
3FC0
7FE0
F0E0
E070
E070
E000
E000
E000
E000
E000
E000
E070
F0F0
79E0
7FC0
3F80
0E00
0E00
3E00
3E00
3E00
ENDCHAR
STARTCHAR 00E8
ENCODING 232
SWIDTH 480 0
DWIDTH 16 0
BBX 12 24 2 0
BITMAP
1C00
0E00
0700
0300
0000
0000
0F00
3FC0
7FE0
F0E0
E0F0
E070
E070
E070
FFF0
FFF0
FFF0
E000
E000
E040
F0E0
7FE0
3FC0
0F00
ENDCHAR
STARTCHAR 00E9
ENCODING 233
SWIDTH 480 0
DWIDTH 16 0
BBX 12 24 2 0
BITMAP
0380
0700
0E00
0C00
1800
0000
0F00
3FC0
7FE0
70E0
E070
E070
E070
FFF0
FFF0
FFF0
E000
E000
E000
E040
F0E0
7FE0
3FC0
0F00
ENDCHAR
STARTCHAR 00EA
ENCODING 234
SWIDTH 480 0
DWIDTH 16 0
BBX 12 24 2 0
BITMAP
0F00
1F00
1980
39C0
70C0
0000
0F00
3FC0
7FE0
70E0
E070
E070
E070
FFF0
FFF0
FFF0
E000
E000
E000
E040
F0E0
7FE0
3FC0
0F00
ENDCHAR
STARTCHAR 00EB
ENCODING 235
SWIDTH 480 0
DWIDTH 16 0
BBX 12 23 2 1
BITMAP
3B80
3B80
3B80
0000
0000
0F00
3FC0
7FE0
70E0
E070
E070
E070
FFF0
FFF0
FFF0
E000
E000
E000
E040
F0E0
7FE0
3FC0
1F00
ENDCHAR
STARTCHAR 00EC
ENCODING 236
SWIDTH 270 0
DWIDTH 9 0
BBX 6 24 1 0
BITMAP
E0
70
30
18
1C
00
70
70
70
70
70
70
70
70
70
70
70
70
70
70
70
7C
3C
1C
ENDCHAR
STARTCHAR 00ED
ENCODING 237
SWIDTH 270 0
DWIDTH 9 0
BBX 6 24 1 0
BITMAP
1C
38
30
70
E0
00
70
70
70
70
70
70
70
70
70
70
70
70
70
70
70
7C
3C
1C
ENDCHAR
STARTCHAR 00EE
ENCODING 238
SWIDTH 270 0
DWIDTH 9 0
BBX 9 24 -1 0
BITMAP
1C00
3E00
7700
6300
C180
0000
1C00
1C00
1C00
1C00
1C00
1C00
1C00
1C00
1C00
1C00
1C00
1C00
1C00
1C00
1C00
1F00
0F00
0700
ENDCHAR
STARTCHAR 00EF
ENCODING 239
SWIDTH 270 0
DWIDTH 9 0
BBX 7 24 1 0
BITMAP
EE
EE
EE
00
00
00
70
70
70
70
70
70
70
70
70
70
70
70
70
70
78
3C
3C
0C
ENDCHAR
STARTCHAR 00F0
ENCODING 240
SWIDTH 450 0
DWIDTH 15 0
BBX 0 0 0 0
BITMAP
ENDCHAR
STARTCHAR 00F1
ENCODING 241
SWIDTH 450 0
DWIDTH 15 0
BBX 0 0 0 0
BITMAP
ENDCHAR
STARTCHAR 00F2
ENCODING 242
SWIDTH 480 0
DWIDTH 16 0
BBX 12 29 2 0
BITMAP
3C00
1E00
0E00
0700
0300
0000
0000
0000
0000
0000
0000
0F00
3FC0
7FE0
70E0
E070
E070
E070
E070
E070
E070
E070
E070
E070
E070
F0E0
7FE0
3FC0
0F00
ENDCHAR
STARTCHAR 00F3
ENCODING 243
SWIDTH 480 0
DWIDTH 16 0
BBX 12 24 2 0
BITMAP
0380
0700
0E00
0C00
1800
0000
0F00
3FC0
7FE0
70E0
E070
E070
E070
E070
E070
E070
E070
E070
E070
E070
F0E0
7FE0
3FC0
0F00
ENDCHAR
STARTCHAR 00F4
ENCODING 244
SWIDTH 480 0
DWIDTH 16 0
BBX 12 24 2 0
BITMAP
0F00
1F00
1980
39C0
70C0
0000
0F00
3FC0
7FE0
70E0
E070
E070
E070
E070
E070
E070
E070
E070
E070
E070
F0E0
7FE0
3FC0
0F00
ENDCHAR
STARTCHAR 00F5
ENCODING 245
SWIDTH 480 0
DWIDTH 16 0
BBX 12 18 2 0
BITMAP
0F00
3FC0
7FE0
70E0
E070
E070
E070
E070
E070
E070
E070
E070
E070
E070
F0E0
7FE0
3FC0
0F00
ENDCHAR
STARTCHAR 00F6
ENCODING 246
SWIDTH 480 0
DWIDTH 16 0
BBX 12 23 2 1
BITMAP
3B80
3B80
3B80
0000
0000
0F00
3FC0
7FE0
70E0
E070
E070
E070
E070
E070
E070
E070
E070
E070
E070
F0E0
7FE0
3FC0
0F00
ENDCHAR
STARTCHAR 00F7
ENCODING 247
SWIDTH 450 0
DWIDTH 15 0
BBX 9 13 3 3
BITMAP
1C00
1C00
1C00
0000
0000
FF80
FF80
FF80
0000
0000
1C00
1C00
1C00
ENDCHAR
STARTCHAR 00F8
ENCODING 248
SWIDTH 480 0
DWIDTH 16 0
BBX 12 24 2 0
BITMAP
0F70
3FE0
7FE0
70E0
E1F0
E1F0
E1F0
E3F0
E3F0
E770
E770
E770
EE70
EE70
FE70
FC70
FC70
F870
F870
F870
70E0
7FE0
7FC0
EF00
ENDCHAR
STARTCHAR 00F9
ENCODING 249
SWIDTH 480 0
DWIDTH 16 0
BBX 12 24 2 0
BITMAP
1C00
0E00
0700
0300
0180
0000
E070
E070
E070
E070
E070
E070
E070
E070
E070
E070
E070
E070
E070
E070
70F0
7FF0
3FF0
0F70
ENDCHAR
STARTCHAR 00FA
ENCODING 250
SWIDTH 480 0
DWIDTH 16 0
BBX 12 24 2 0
BITMAP
0380
0700
0E00
0C00
1800
0000
E070
E070
E070
E070
E070
E070
E070
E070
E070
E070
E070
E070
E070
E070
70F0
7FF0
3FF0
0F70
ENDCHAR
STARTCHAR 00FB
ENCODING 251
SWIDTH 480 0
DWIDTH 16 0
BBX 12 24 2 0
BITMAP
0F00
1F00
1980
39C0
70C0
0000
E070
E070
E070
E070
E070
E070
E070
E070
E070
E070
E070
E070
E070
E070
70F0
7FF0
3FF0
0F70
ENDCHAR
STARTCHAR 00FC
ENCODING 252
SWIDTH 480 0
DWIDTH 16 0
BBX 12 23 2 1
BITMAP
3B80
3B80
3B80
0000
0000
E070
E070
E070
E070
E070
E070
E070
E070
E070
E070
E070
E070
E070
E070
70F0
7FF0
3FF0
0F70
ENDCHAR
STARTCHAR 00FD
ENCODING 253
SWIDTH 450 0
DWIDTH 15 0
BBX 0 0 0 0
BITMAP
ENDCHAR
STARTCHAR 00FE
ENCODING 254
SWIDTH 450 0
DWIDTH 15 0
BBX 0 0 0 0
BITMAP
ENDCHAR
STARTCHAR 00FF
ENCODING 255
SWIDTH 450 0
DWIDTH 15 0
BBX 0 0 0 0
BITMAP
ENDCHAR
STARTCHAR 0100
ENCODING 256
SWIDTH 450 0
DWIDTH 15 0
BBX 0 0 0 0
BITMAP
ENDCHAR
STARTCHAR 0101
ENCODING 257
SWIDTH 450 0
DWIDTH 15 0
BBX 0 0 0 0
BITMAP
ENDCHAR
STARTCHAR 0102
ENCODING 258
SWIDTH 450 0
DWIDTH 15 0
BBX 0 0 0 0
BITMAP
ENDCHAR
STARTCHAR 0103
ENCODING 259
SWIDTH 450 0
DWIDTH 15 0
BBX 0 0 0 0
BITMAP
ENDCHAR
STARTCHAR 0104
ENCODING 260
SWIDTH 450 0
DWIDTH 15 0
BBX 0 0 0 0
BITMAP
ENDCHAR
STARTCHAR 0105
ENCODING 261
SWIDTH 450 0
DWIDTH 15 0
BBX 0 0 0 0
BITMAP
ENDCHAR
STARTCHAR 0106
ENCODING 262
SWIDTH 450 0
DWIDTH 15 0
BBX 0 0 0 0
BITMAP
ENDCHAR
STARTCHAR 0107
ENCODING 263
SWIDTH 450 0
DWIDTH 15 0
BBX 0 0 0 0
BITMAP
ENDCHAR
STARTCHAR 0108
ENCODING 264
SWIDTH 450 0
DWIDTH 15 0
BBX 0 0 0 0
BITMAP
ENDCHAR
STARTCHAR 0109
ENCODING 265
SWIDTH 450 0
DWIDTH 15 0
BBX 0 0 0 0
BITMAP
ENDCHAR
STARTCHAR 010A
ENCODING 266
SWIDTH 450 0
DWIDTH 15 0
BBX 0 0 0 0
BITMAP
ENDCHAR
STARTCHAR 010B
ENCODING 267
SWIDTH 450 0
DWIDTH 15 0
BBX 0 0 0 0
BITMAP
ENDCHAR
STARTCHAR 010C
ENCODING 268
SWIDTH 450 0
DWIDTH 15 0
BBX 0 0 0 0
BITMAP
ENDCHAR
STARTCHAR 010D
ENCODING 269
SWIDTH 450 0
DWIDTH 15 0
BBX 0 0 0 0
BITMAP
ENDCHAR
STARTCHAR 010E
ENCODING 270
SWIDTH 450 0
DWIDTH 15 0
BBX 0 0 0 0
BITMAP
ENDCHAR
STARTCHAR 010F
ENCODING 271
SWIDTH 450 0
DWIDTH 15 0
BBX 0 0 0 0
BITMAP
ENDCHAR
STARTCHAR 0110
ENCODING 272
SWIDTH 450 0
DWIDTH 15 0
BBX 0 0 0 0
BITMAP
ENDCHAR
STARTCHAR 0111
ENCODING 273
SWIDTH 450 0
DWIDTH 15 0
BBX 0 0 0 0
BITMAP
ENDCHAR
STARTCHAR 0112
ENCODING 274
SWIDTH 450 0
DWIDTH 15 0
BBX 0 0 0 0
BITMAP
ENDCHAR
STARTCHAR 0113
ENCODING 275
SWIDTH 450 0
DWIDTH 15 0
BBX 0 0 0 0
BITMAP
ENDCHAR
STARTCHAR 0114
ENCODING 276
SWIDTH 450 0
DWIDTH 15 0
BBX 0 0 0 0
BITMAP
ENDCHAR
STARTCHAR 0115
ENCODING 277
SWIDTH 450 0
DWIDTH 15 0
BBX 0 0 0 0
BITMAP
ENDCHAR
STARTCHAR 0116
ENCODING 278
SWIDTH 450 0
DWIDTH 15 0
BBX 0 0 0 0
BITMAP
ENDCHAR
STARTCHAR 0117
ENCODING 279
SWIDTH 450 0
DWIDTH 15 0
BBX 0 0 0 0
BITMAP
ENDCHAR
STARTCHAR 0118
ENCODING 280
SWIDTH 450 0
DWIDTH 15 0
BBX 0 0 0 0
BITMAP
ENDCHAR
STARTCHAR 0119
ENCODING 281
SWIDTH 450 0
DWIDTH 15 0
BBX 0 0 0 0
BITMAP
ENDCHAR
STARTCHAR 011A
ENCODING 282
SWIDTH 450 0
DWIDTH 15 0
BBX 0 0 0 0
BITMAP
ENDCHAR
STARTCHAR 011B
ENCODING 283
SWIDTH 450 0
DWIDTH 15 0
BBX 0 0 0 0
BITMAP
ENDCHAR
STARTCHAR 011C
ENCODING 284
SWIDTH 450 0
DWIDTH 15 0
BBX 0 0 0 0
BITMAP
ENDCHAR
STARTCHAR 011D
ENCODING 285
SWIDTH 450 0
DWIDTH 15 0
BBX 0 0 0 0
BITMAP
ENDCHAR
STARTCHAR 011E
ENCODING 286
SWIDTH 450 0
DWIDTH 15 0
BBX 0 0 0 0
BITMAP
ENDCHAR
STARTCHAR 011F
ENCODING 287
SWIDTH 450 0
DWIDTH 15 0
BBX 0 0 0 0
BITMAP
ENDCHAR
STARTCHAR 0120
ENCODING 288
SWIDTH 450 0
DWIDTH 15 0
BBX 0 0 0 0
BITMAP
ENDCHAR
STARTCHAR 0121
ENCODING 289
SWIDTH 450 0
DWIDTH 15 0
BBX 0 0 0 0
BITMAP
ENDCHAR
STARTCHAR 0122
ENCODING 290
SWIDTH 450 0
DWIDTH 15 0
BBX 0 0 0 0
BITMAP
ENDCHAR
STARTCHAR 0123
ENCODING 291
SWIDTH 450 0
DWIDTH 15 0
BBX 0 0 0 0
BITMAP
ENDCHAR
STARTCHAR 0124
ENCODING 292
SWIDTH 450 0
DWIDTH 15 0
BBX 0 0 0 0
BITMAP
ENDCHAR
STARTCHAR 0125
ENCODING 293
SWIDTH 450 0
DWIDTH 15 0
BBX 0 0 0 0
BITMAP
ENDCHAR
STARTCHAR 0126
ENCODING 294
SWIDTH 450 0
DWIDTH 15 0
BBX 0 0 0 0
BITMAP
ENDCHAR
STARTCHAR 0127
ENCODING 295
SWIDTH 450 0
DWIDTH 15 0
BBX 0 0 0 0
BITMAP
ENDCHAR
STARTCHAR 0128
ENCODING 296
SWIDTH 450 0
DWIDTH 15 0
BBX 0 0 0 0
BITMAP
ENDCHAR
STARTCHAR 0129
ENCODING 297
SWIDTH 450 0
DWIDTH 15 0
BBX 0 0 0 0
BITMAP
ENDCHAR
STARTCHAR 012A
ENCODING 298
SWIDTH 450 0
DWIDTH 15 0
BBX 0 0 0 0
BITMAP
ENDCHAR
STARTCHAR 012B
ENCODING 299
SWIDTH 450 0
DWIDTH 15 0
BBX 0 0 0 0
BITMAP
ENDCHAR
STARTCHAR 012C
ENCODING 300
SWIDTH 450 0
DWIDTH 15 0
BBX 0 0 0 0
BITMAP
ENDCHAR
STARTCHAR 012D
ENCODING 301
SWIDTH 450 0
DWIDTH 15 0
BBX 0 0 0 0
BITMAP
ENDCHAR
STARTCHAR 012E
ENCODING 302
SWIDTH 450 0
DWIDTH 15 0
BBX 0 0 0 0
BITMAP
ENDCHAR
STARTCHAR 012F
ENCODING 303
SWIDTH 450 0
DWIDTH 15 0
BBX 0 0 0 0
BITMAP
ENDCHAR
STARTCHAR 0130
ENCODING 304
SWIDTH 450 0
DWIDTH 15 0
BBX 0 0 0 0
BITMAP
ENDCHAR
STARTCHAR 0131
ENCODING 305
SWIDTH 450 0
DWIDTH 15 0
BBX 0 0 0 0
BITMAP
ENDCHAR
STARTCHAR 0132
ENCODING 306
SWIDTH 450 0
DWIDTH 15 0
BBX 0 0 0 0
BITMAP
ENDCHAR
STARTCHAR 0133
ENCODING 307
SWIDTH 450 0
DWIDTH 15 0
BBX 0 0 0 0
BITMAP
ENDCHAR
STARTCHAR 0134
ENCODING 308
SWIDTH 450 0
DWIDTH 15 0
BBX 0 0 0 0
BITMAP
ENDCHAR
STARTCHAR 0135
ENCODING 309
SWIDTH 450 0
DWIDTH 15 0
BBX 0 0 0 0
BITMAP
ENDCHAR
STARTCHAR 0136
ENCODING 310
SWIDTH 450 0
DWIDTH 15 0
BBX 0 0 0 0
BITMAP
ENDCHAR
STARTCHAR 0137
ENCODING 311
SWIDTH 450 0
DWIDTH 15 0
BBX 0 0 0 0
BITMAP
ENDCHAR
STARTCHAR 0138
ENCODING 312
SWIDTH 450 0
DWIDTH 15 0
BBX 0 0 0 0
BITMAP
ENDCHAR
STARTCHAR 0139
ENCODING 313
SWIDTH 450 0
DWIDTH 15 0
BBX 0 0 0 0
BITMAP
ENDCHAR
STARTCHAR 013A
ENCODING 314
SWIDTH 450 0
DWIDTH 15 0
BBX 0 0 0 0
BITMAP
ENDCHAR
STARTCHAR 013B
ENCODING 315
SWIDTH 450 0
DWIDTH 15 0
BBX 0 0 0 0
BITMAP
ENDCHAR
STARTCHAR 013C
ENCODING 316
SWIDTH 450 0
DWIDTH 15 0
BBX 0 0 0 0
BITMAP
ENDCHAR
STARTCHAR 013D
ENCODING 317
SWIDTH 450 0
DWIDTH 15 0
BBX 0 0 0 0
BITMAP
ENDCHAR
STARTCHAR 013E
ENCODING 318
SWIDTH 450 0
DWIDTH 15 0
BBX 0 0 0 0
BITMAP
ENDCHAR
STARTCHAR 013F
ENCODING 319
SWIDTH 450 0
DWIDTH 15 0
BBX 0 0 0 0
BITMAP
ENDCHAR
STARTCHAR 0140
ENCODING 320
SWIDTH 450 0
DWIDTH 15 0
BBX 0 0 0 0
BITMAP
ENDCHAR
STARTCHAR 0141
ENCODING 321
SWIDTH 450 0
DWIDTH 15 0
BBX 0 0 0 0
BITMAP
ENDCHAR
STARTCHAR 0142
ENCODING 322
SWIDTH 450 0
DWIDTH 15 0
BBX 0 0 0 0
BITMAP
ENDCHAR
STARTCHAR 0143
ENCODING 323
SWIDTH 450 0
DWIDTH 15 0
BBX 0 0 0 0
BITMAP
ENDCHAR
STARTCHAR 0144
ENCODING 324
SWIDTH 450 0
DWIDTH 15 0
BBX 0 0 0 0
BITMAP
ENDCHAR
STARTCHAR 0145
ENCODING 325
SWIDTH 450 0
DWIDTH 15 0
BBX 0 0 0 0
BITMAP
ENDCHAR
STARTCHAR 0146
ENCODING 326
SWIDTH 450 0
DWIDTH 15 0
BBX 0 0 0 0
BITMAP
ENDCHAR
STARTCHAR 0147
ENCODING 327
SWIDTH 450 0
DWIDTH 15 0
BBX 0 0 0 0
BITMAP
ENDCHAR
STARTCHAR 0148
ENCODING 328
SWIDTH 450 0
DWIDTH 15 0
BBX 0 0 0 0
BITMAP
ENDCHAR
STARTCHAR 0149
ENCODING 329
SWIDTH 450 0
DWIDTH 15 0
BBX 0 0 0 0
BITMAP
ENDCHAR
STARTCHAR 014A
ENCODING 330
SWIDTH 450 0
DWIDTH 15 0
BBX 0 0 0 0
BITMAP
ENDCHAR
STARTCHAR 014B
ENCODING 331
SWIDTH 450 0
DWIDTH 15 0
BBX 0 0 0 0
BITMAP
ENDCHAR
STARTCHAR 014C
ENCODING 332
SWIDTH 450 0
DWIDTH 15 0
BBX 0 0 0 0
BITMAP
ENDCHAR
STARTCHAR 014D
ENCODING 333
SWIDTH 450 0
DWIDTH 15 0
BBX 0 0 0 0
BITMAP
ENDCHAR
STARTCHAR 014E
ENCODING 334
SWIDTH 450 0
DWIDTH 15 0
BBX 0 0 0 0
BITMAP
ENDCHAR
STARTCHAR 014F
ENCODING 335
SWIDTH 450 0
DWIDTH 15 0
BBX 0 0 0 0
BITMAP
ENDCHAR
STARTCHAR 0150
ENCODING 336
SWIDTH 450 0
DWIDTH 15 0
BBX 0 0 0 0
BITMAP
ENDCHAR
STARTCHAR 0151
ENCODING 337
SWIDTH 450 0
DWIDTH 15 0
BBX 0 0 0 0
BITMAP
ENDCHAR
STARTCHAR 0152
ENCODING 338
SWIDTH 480 0
DWIDTH 16 0
BBX 18 24 -1 0
BITMAP
1EFFC0
7FFFC0
7FFFC0
F3E000
E1E000
E1E000
E1E000
E1E000
E1E000
E1E000
E1E000
E1FF00
E1FF00
E1FF00
E1E000
E1E000
E1E000
E1E000
E1E000
E1E000
F3E000
7FFFC0
7FFFC0
1EFFC0
ENDCHAR
STARTCHAR 0153
ENCODING 339
SWIDTH 630 0
DWIDTH 21 0
BBX 17 18 2 0
BITMAP
1E3C00
7F7F00
7FFF00
F3E780
E1C380
E1C380
E1C380
E1C380
E1FF80
E1FF80
E1FF80
E1C000
E1C000
E1C380
F3E780
7FFF00
7F7F00
1E3C00
ENDCHAR
STARTCHAR 0154
ENCODING 340
SWIDTH 450 0
DWIDTH 15 0
BBX 0 0 0 0
BITMAP
ENDCHAR
STARTCHAR 0155
ENCODING 341
SWIDTH 450 0
DWIDTH 15 0
BBX 0 0 0 0
BITMAP
ENDCHAR
STARTCHAR 0156
ENCODING 342
SWIDTH 450 0
DWIDTH 15 0
BBX 0 0 0 0
BITMAP
ENDCHAR
STARTCHAR 0157
ENCODING 343
SWIDTH 450 0
DWIDTH 15 0
BBX 0 0 0 0
BITMAP
ENDCHAR
STARTCHAR 0158
ENCODING 344
SWIDTH 450 0
DWIDTH 15 0
BBX 0 0 0 0
BITMAP
ENDCHAR
STARTCHAR 0159
ENCODING 345
SWIDTH 450 0
DWIDTH 15 0
BBX 0 0 0 0
BITMAP
ENDCHAR
STARTCHAR 015A
ENCODING 346
SWIDTH 450 0
DWIDTH 15 0
BBX 0 0 0 0
BITMAP
ENDCHAR
STARTCHAR 015B
ENCODING 347
SWIDTH 450 0
DWIDTH 15 0
BBX 0 0 0 0
BITMAP
ENDCHAR
STARTCHAR 015C
ENCODING 348
SWIDTH 450 0
DWIDTH 15 0
BBX 0 0 0 0
BITMAP
ENDCHAR
STARTCHAR 015D
ENCODING 349
SWIDTH 450 0
DWIDTH 15 0
BBX 0 0 0 0
BITMAP
ENDCHAR
STARTCHAR 015E
ENCODING 350
SWIDTH 450 0
DWIDTH 15 0
BBX 0 0 0 0
BITMAP
ENDCHAR
STARTCHAR 015F
ENCODING 351
SWIDTH 450 0
DWIDTH 15 0
BBX 0 0 0 0
BITMAP
ENDCHAR
STARTCHAR 0160
ENCODING 352
SWIDTH 450 0
DWIDTH 15 0
BBX 0 0 0 0
BITMAP
ENDCHAR
STARTCHAR 0161
ENCODING 353
SWIDTH 450 0
DWIDTH 15 0
BBX 0 0 0 0
BITMAP
ENDCHAR
STARTCHAR 0162
ENCODING 354
SWIDTH 450 0
DWIDTH 15 0
BBX 0 0 0 0
BITMAP
ENDCHAR
STARTCHAR 0163
ENCODING 355
SWIDTH 450 0
DWIDTH 15 0
BBX 0 0 0 0
BITMAP
ENDCHAR
STARTCHAR 0164
ENCODING 356
SWIDTH 450 0
DWIDTH 15 0
BBX 0 0 0 0
BITMAP
ENDCHAR
STARTCHAR 0165
ENCODING 357
SWIDTH 450 0
DWIDTH 15 0
BBX 0 0 0 0
BITMAP
ENDCHAR
STARTCHAR 0166
ENCODING 358
SWIDTH 450 0
DWIDTH 15 0
BBX 0 0 0 0
BITMAP
ENDCHAR
STARTCHAR 0167
ENCODING 359
SWIDTH 450 0
DWIDTH 15 0
BBX 0 0 0 0
BITMAP
ENDCHAR
STARTCHAR 0168
ENCODING 360
SWIDTH 450 0
DWIDTH 15 0
BBX 0 0 0 0
BITMAP
ENDCHAR
STARTCHAR 0169
ENCODING 361
SWIDTH 450 0
DWIDTH 15 0
BBX 0 0 0 0
BITMAP
ENDCHAR
STARTCHAR 016A
ENCODING 362
SWIDTH 450 0
DWIDTH 15 0
BBX 0 0 0 0
BITMAP
ENDCHAR
STARTCHAR 016B
ENCODING 363
SWIDTH 450 0
DWIDTH 15 0
BBX 0 0 0 0
BITMAP
ENDCHAR
STARTCHAR 016C
ENCODING 364
SWIDTH 450 0
DWIDTH 15 0
BBX 0 0 0 0
BITMAP
ENDCHAR
STARTCHAR 016D
ENCODING 365
SWIDTH 450 0
DWIDTH 15 0
BBX 0 0 0 0
BITMAP
ENDCHAR
STARTCHAR 016E
ENCODING 366
SWIDTH 450 0
DWIDTH 15 0
BBX 0 0 0 0
BITMAP
ENDCHAR
STARTCHAR 016F
ENCODING 367
SWIDTH 450 0
DWIDTH 15 0
BBX 0 0 0 0
BITMAP
ENDCHAR
STARTCHAR 0170
ENCODING 368
SWIDTH 450 0
DWIDTH 15 0
BBX 0 0 0 0
BITMAP
ENDCHAR
STARTCHAR 0171
ENCODING 369
SWIDTH 450 0
DWIDTH 15 0
BBX 0 0 0 0
BITMAP
ENDCHAR
STARTCHAR 0172
ENCODING 370
SWIDTH 450 0
DWIDTH 15 0
BBX 0 0 0 0
BITMAP
ENDCHAR
STARTCHAR 0173
ENCODING 371
SWIDTH 450 0
DWIDTH 15 0
BBX 0 0 0 0
BITMAP
ENDCHAR
STARTCHAR 0174
ENCODING 372
SWIDTH 450 0
DWIDTH 15 0
BBX 0 0 0 0
BITMAP
ENDCHAR
STARTCHAR 0175
ENCODING 373
SWIDTH 450 0
DWIDTH 15 0
BBX 0 0 0 0
BITMAP
ENDCHAR
STARTCHAR 0176
ENCODING 374
SWIDTH 450 0
DWIDTH 15 0
BBX 0 0 0 0
BITMAP
ENDCHAR
STARTCHAR 0177
ENCODING 375
SWIDTH 450 0
DWIDTH 15 0
BBX 0 0 0 0
BITMAP
ENDCHAR
STARTCHAR 0178
ENCODING 376
SWIDTH 450 0
DWIDTH 15 0
BBX 0 0 0 0
BITMAP
ENDCHAR
STARTCHAR 0179
ENCODING 377
SWIDTH 450 0
DWIDTH 15 0
BBX 0 0 0 0
BITMAP
ENDCHAR
STARTCHAR 017A
ENCODING 378
SWIDTH 450 0
DWIDTH 15 0
BBX 0 0 0 0
BITMAP
ENDCHAR
STARTCHAR 017B
ENCODING 379
SWIDTH 450 0
DWIDTH 15 0
BBX 0 0 0 0
BITMAP
ENDCHAR
STARTCHAR 017C
ENCODING 380
SWIDTH 450 0
DWIDTH 15 0
BBX 0 0 0 0
BITMAP
ENDCHAR
STARTCHAR 017D
ENCODING 381
SWIDTH 450 0
DWIDTH 15 0
BBX 0 0 0 0
BITMAP
ENDCHAR
STARTCHAR 017E
ENCODING 382
SWIDTH 450 0
DWIDTH 15 0
BBX 0 0 0 0
BITMAP
ENDCHAR
STARTCHAR 017F
ENCODING 383
SWIDTH 450 0
DWIDTH 15 0
BBX 0 0 0 0
BITMAP
ENDCHAR
STARTCHAR 0180
ENCODING 384
SWIDTH 450 0
DWIDTH 15 0
BBX 0 0 0 0
BITMAP
ENDCHAR
STARTCHAR 0181
ENCODING 385
SWIDTH 450 0
DWIDTH 15 0
BBX 0 0 0 0
BITMAP
ENDCHAR
STARTCHAR 0182
ENCODING 386
SWIDTH 450 0
DWIDTH 15 0
BBX 0 0 0 0
BITMAP
ENDCHAR
STARTCHAR 0183
ENCODING 387
SWIDTH 450 0
DWIDTH 15 0
BBX 0 0 0 0
BITMAP
ENDCHAR
STARTCHAR 0184
ENCODING 388
SWIDTH 450 0
DWIDTH 15 0
BBX 0 0 0 0
BITMAP
ENDCHAR
STARTCHAR 0185
ENCODING 389
SWIDTH 450 0
DWIDTH 15 0
BBX 0 0 0 0
BITMAP
ENDCHAR
STARTCHAR 0186
ENCODING 390
SWIDTH 450 0
DWIDTH 15 0
BBX 0 0 0 0
BITMAP
ENDCHAR
STARTCHAR 0187
ENCODING 391
SWIDTH 450 0
DWIDTH 15 0
BBX 0 0 0 0
BITMAP
ENDCHAR
STARTCHAR 0188
ENCODING 392
SWIDTH 450 0
DWIDTH 15 0
BBX 0 0 0 0
BITMAP
ENDCHAR
STARTCHAR 0189
ENCODING 393
SWIDTH 450 0
DWIDTH 15 0
BBX 0 0 0 0
BITMAP
ENDCHAR
STARTCHAR 018A
ENCODING 394
SWIDTH 450 0
DWIDTH 15 0
BBX 0 0 0 0
BITMAP
ENDCHAR
STARTCHAR 018B
ENCODING 395
SWIDTH 450 0
DWIDTH 15 0
BBX 0 0 0 0
BITMAP
ENDCHAR
STARTCHAR 018C
ENCODING 396
SWIDTH 450 0
DWIDTH 15 0
BBX 0 0 0 0
BITMAP
ENDCHAR
STARTCHAR 018D
ENCODING 397
SWIDTH 450 0
DWIDTH 15 0
BBX 0 0 0 0
BITMAP
ENDCHAR
STARTCHAR 018E
ENCODING 398
SWIDTH 450 0
DWIDTH 15 0
BBX 0 0 0 0
BITMAP
ENDCHAR
STARTCHAR 018F
ENCODING 399
SWIDTH 450 0
DWIDTH 15 0
BBX 0 0 0 0
BITMAP
ENDCHAR
STARTCHAR 0190
ENCODING 400
SWIDTH 450 0
DWIDTH 15 0
BBX 0 0 0 0
BITMAP
ENDCHAR
STARTCHAR 0191
ENCODING 401
SWIDTH 450 0
DWIDTH 15 0
BBX 0 0 0 0
BITMAP
ENDCHAR
STARTCHAR 0192
ENCODING 402
SWIDTH 450 0
DWIDTH 15 0
BBX 0 0 0 0
BITMAP
ENDCHAR
STARTCHAR 0193
ENCODING 403
SWIDTH 450 0
DWIDTH 15 0
BBX 0 0 0 0
BITMAP
ENDCHAR
STARTCHAR 0194
ENCODING 404
SWIDTH 450 0
DWIDTH 15 0
BBX 0 0 0 0
BITMAP
ENDCHAR
STARTCHAR 0195
ENCODING 405
SWIDTH 450 0
DWIDTH 15 0
BBX 0 0 0 0
BITMAP
ENDCHAR
STARTCHAR 0196
ENCODING 406
SWIDTH 450 0
DWIDTH 15 0
BBX 0 0 0 0
BITMAP
ENDCHAR
STARTCHAR 0197
ENCODING 407
SWIDTH 450 0
DWIDTH 15 0
BBX 0 0 0 0
BITMAP
ENDCHAR
STARTCHAR 0198
ENCODING 408
SWIDTH 450 0
DWIDTH 15 0
BBX 0 0 0 0
BITMAP
ENDCHAR
STARTCHAR 0199
ENCODING 409
SWIDTH 450 0
DWIDTH 15 0
BBX 0 0 0 0
BITMAP
ENDCHAR
STARTCHAR 019A
ENCODING 410
SWIDTH 450 0
DWIDTH 15 0
BBX 0 0 0 0
BITMAP
ENDCHAR
STARTCHAR 019B
ENCODING 411
SWIDTH 450 0
DWIDTH 15 0
BBX 0 0 0 0
BITMAP
ENDCHAR
STARTCHAR 019C
ENCODING 412
SWIDTH 450 0
DWIDTH 15 0
BBX 0 0 0 0
BITMAP
ENDCHAR
STARTCHAR 019D
ENCODING 413
SWIDTH 450 0
DWIDTH 15 0
BBX 0 0 0 0
BITMAP
ENDCHAR
STARTCHAR 019E
ENCODING 414
SWIDTH 450 0
DWIDTH 15 0
BBX 0 0 0 0
BITMAP
ENDCHAR
STARTCHAR 019F
ENCODING 415
SWIDTH 450 0
DWIDTH 15 0
BBX 0 0 0 0
BITMAP
ENDCHAR
STARTCHAR 01A0
ENCODING 416
SWIDTH 450 0
DWIDTH 15 0
BBX 0 0 0 0
BITMAP
ENDCHAR
STARTCHAR 01A1
ENCODING 417
SWIDTH 450 0
DWIDTH 15 0
BBX 0 0 0 0
BITMAP
ENDCHAR
STARTCHAR 01A2
ENCODING 418
SWIDTH 450 0
DWIDTH 15 0
BBX 0 0 0 0
BITMAP
ENDCHAR
STARTCHAR 01A3
ENCODING 419
SWIDTH 450 0
DWIDTH 15 0
BBX 0 0 0 0
BITMAP
ENDCHAR
STARTCHAR 01A4
ENCODING 420
SWIDTH 450 0
DWIDTH 15 0
BBX 0 0 0 0
BITMAP
ENDCHAR
STARTCHAR 01A5
ENCODING 421
SWIDTH 450 0
DWIDTH 15 0
BBX 0 0 0 0
BITMAP
ENDCHAR
STARTCHAR 01A6
ENCODING 422
SWIDTH 450 0
DWIDTH 15 0
BBX 0 0 0 0
BITMAP
ENDCHAR
STARTCHAR 01A7
ENCODING 423
SWIDTH 450 0
DWIDTH 15 0
BBX 0 0 0 0
BITMAP
ENDCHAR
STARTCHAR 01A8
ENCODING 424
SWIDTH 450 0
DWIDTH 15 0
BBX 0 0 0 0
BITMAP
ENDCHAR
STARTCHAR 01A9
ENCODING 425
SWIDTH 450 0
DWIDTH 15 0
BBX 0 0 0 0
BITMAP
ENDCHAR
STARTCHAR 01AA
ENCODING 426
SWIDTH 450 0
DWIDTH 15 0
BBX 0 0 0 0
BITMAP
ENDCHAR
STARTCHAR 01AB
ENCODING 427
SWIDTH 450 0
DWIDTH 15 0
BBX 0 0 0 0
BITMAP
ENDCHAR
STARTCHAR 01AC
ENCODING 428
SWIDTH 450 0
DWIDTH 15 0
BBX 0 0 0 0
BITMAP
ENDCHAR
STARTCHAR 01AD
ENCODING 429
SWIDTH 450 0
DWIDTH 15 0
BBX 0 0 0 0
BITMAP
ENDCHAR
STARTCHAR 01AE
ENCODING 430
SWIDTH 450 0
DWIDTH 15 0
BBX 0 0 0 0
BITMAP
ENDCHAR
STARTCHAR 01AF
ENCODING 431
SWIDTH 450 0
DWIDTH 15 0
BBX 0 0 0 0
BITMAP
ENDCHAR
STARTCHAR 01B0
ENCODING 432
SWIDTH 450 0
DWIDTH 15 0
BBX 0 0 0 0
BITMAP
ENDCHAR
STARTCHAR 01B1
ENCODING 433
SWIDTH 450 0
DWIDTH 15 0
BBX 0 0 0 0
BITMAP
ENDCHAR
STARTCHAR 01B2
ENCODING 434
SWIDTH 450 0
DWIDTH 15 0
BBX 0 0 0 0
BITMAP
ENDCHAR
STARTCHAR 01B3
ENCODING 435
SWIDTH 450 0
DWIDTH 15 0
BBX 0 0 0 0
BITMAP
ENDCHAR
STARTCHAR 01B4
ENCODING 436
SWIDTH 450 0
DWIDTH 15 0
BBX 0 0 0 0
BITMAP
ENDCHAR
STARTCHAR 01B5
ENCODING 437
SWIDTH 450 0
DWIDTH 15 0
BBX 0 0 0 0
BITMAP
ENDCHAR
STARTCHAR 01B6
ENCODING 438
SWIDTH 450 0
DWIDTH 15 0
BBX 0 0 0 0
BITMAP
ENDCHAR
STARTCHAR 01B7
ENCODING 439
SWIDTH 450 0
DWIDTH 15 0
BBX 0 0 0 0
BITMAP
ENDCHAR
STARTCHAR 01B8
ENCODING 440
SWIDTH 450 0
DWIDTH 15 0
BBX 0 0 0 0
BITMAP
ENDCHAR
STARTCHAR 01B9
ENCODING 441
SWIDTH 450 0
DWIDTH 15 0
BBX 0 0 0 0
BITMAP
ENDCHAR
STARTCHAR 01BA
ENCODING 442
SWIDTH 450 0
DWIDTH 15 0
BBX 0 0 0 0
BITMAP
ENDCHAR
STARTCHAR 01BB
ENCODING 443
SWIDTH 450 0
DWIDTH 15 0
BBX 0 0 0 0
BITMAP
ENDCHAR
STARTCHAR 01BC
ENCODING 444
SWIDTH 450 0
DWIDTH 15 0
BBX 0 0 0 0
BITMAP
ENDCHAR
STARTCHAR 01BD
ENCODING 445
SWIDTH 450 0
DWIDTH 15 0
BBX 0 0 0 0
BITMAP
ENDCHAR
STARTCHAR 01BE
ENCODING 446
SWIDTH 450 0
DWIDTH 15 0
BBX 0 0 0 0
BITMAP
ENDCHAR
STARTCHAR 01BF
ENCODING 447
SWIDTH 450 0
DWIDTH 15 0
BBX 0 0 0 0
BITMAP
ENDCHAR
STARTCHAR 01C0
ENCODING 448
SWIDTH 450 0
DWIDTH 15 0
BBX 0 0 0 0
BITMAP
ENDCHAR
STARTCHAR 01C1
ENCODING 449
SWIDTH 450 0
DWIDTH 15 0
BBX 0 0 0 0
BITMAP
ENDCHAR
STARTCHAR 01C2
ENCODING 450
SWIDTH 450 0
DWIDTH 15 0
BBX 0 0 0 0
BITMAP
ENDCHAR
STARTCHAR 01C3
ENCODING 451
SWIDTH 450 0
DWIDTH 15 0
BBX 0 0 0 0
BITMAP
ENDCHAR
STARTCHAR 01C4
ENCODING 452
SWIDTH 450 0
DWIDTH 15 0
BBX 0 0 0 0
BITMAP
ENDCHAR
STARTCHAR 01C5
ENCODING 453
SWIDTH 450 0
DWIDTH 15 0
BBX 0 0 0 0
BITMAP
ENDCHAR
STARTCHAR 01C6
ENCODING 454
SWIDTH 450 0
DWIDTH 15 0
BBX 0 0 0 0
BITMAP
ENDCHAR
STARTCHAR 01C7
ENCODING 455
SWIDTH 450 0
DWIDTH 15 0
BBX 0 0 0 0
BITMAP
ENDCHAR
STARTCHAR 01C8
ENCODING 456
SWIDTH 450 0
DWIDTH 15 0
BBX 0 0 0 0
BITMAP
ENDCHAR
STARTCHAR 01C9
ENCODING 457
SWIDTH 450 0
DWIDTH 15 0
BBX 0 0 0 0
BITMAP
ENDCHAR
STARTCHAR 01CA
ENCODING 458
SWIDTH 450 0
DWIDTH 15 0
BBX 0 0 0 0
BITMAP
ENDCHAR
STARTCHAR 01CB
ENCODING 459
SWIDTH 450 0
DWIDTH 15 0
BBX 0 0 0 0
BITMAP
ENDCHAR
STARTCHAR 01CC
ENCODING 460
SWIDTH 450 0
DWIDTH 15 0
BBX 0 0 0 0
BITMAP
ENDCHAR
STARTCHAR 01CD
ENCODING 461
SWIDTH 450 0
DWIDTH 15 0
BBX 0 0 0 0
BITMAP
ENDCHAR
STARTCHAR 01CE
ENCODING 462
SWIDTH 450 0
DWIDTH 15 0
BBX 0 0 0 0
BITMAP
ENDCHAR
STARTCHAR 01CF
ENCODING 463
SWIDTH 450 0
DWIDTH 15 0
BBX 0 0 0 0
BITMAP
ENDCHAR
STARTCHAR 01D0
ENCODING 464
SWIDTH 450 0
DWIDTH 15 0
BBX 0 0 0 0
BITMAP
ENDCHAR
STARTCHAR 01D1
ENCODING 465
SWIDTH 450 0
DWIDTH 15 0
BBX 0 0 0 0
BITMAP
ENDCHAR
STARTCHAR 01D2
ENCODING 466
SWIDTH 450 0
DWIDTH 15 0
BBX 0 0 0 0
BITMAP
ENDCHAR
STARTCHAR 01D3
ENCODING 467
SWIDTH 450 0
DWIDTH 15 0
BBX 0 0 0 0
BITMAP
ENDCHAR
STARTCHAR 01D4
ENCODING 468
SWIDTH 450 0
DWIDTH 15 0
BBX 0 0 0 0
BITMAP
ENDCHAR
STARTCHAR 01D5
ENCODING 469
SWIDTH 450 0
DWIDTH 15 0
BBX 0 0 0 0
BITMAP
ENDCHAR
STARTCHAR 01D6
ENCODING 470
SWIDTH 450 0
DWIDTH 15 0
BBX 0 0 0 0
BITMAP
ENDCHAR
STARTCHAR 01D7
ENCODING 471
SWIDTH 450 0
DWIDTH 15 0
BBX 0 0 0 0
BITMAP
ENDCHAR
STARTCHAR 01D8
ENCODING 472
SWIDTH 450 0
DWIDTH 15 0
BBX 0 0 0 0
BITMAP
ENDCHAR
STARTCHAR 01D9
ENCODING 473
SWIDTH 450 0
DWIDTH 15 0
BBX 0 0 0 0
BITMAP
ENDCHAR
STARTCHAR 01DA
ENCODING 474
SWIDTH 450 0
DWIDTH 15 0
BBX 0 0 0 0
BITMAP
ENDCHAR
STARTCHAR 01DB
ENCODING 475
SWIDTH 450 0
DWIDTH 15 0
BBX 0 0 0 0
BITMAP
ENDCHAR
STARTCHAR 01DC
ENCODING 476
SWIDTH 450 0
DWIDTH 15 0
BBX 0 0 0 0
BITMAP
ENDCHAR
STARTCHAR 01DD
ENCODING 477
SWIDTH 450 0
DWIDTH 15 0
BBX 0 0 0 0
BITMAP
ENDCHAR
STARTCHAR 01DE
ENCODING 478
SWIDTH 450 0
DWIDTH 15 0
BBX 0 0 0 0
BITMAP
ENDCHAR
STARTCHAR 01DF
ENCODING 479
SWIDTH 450 0
DWIDTH 15 0
BBX 0 0 0 0
BITMAP
ENDCHAR
STARTCHAR 01E0
ENCODING 480
SWIDTH 450 0
DWIDTH 15 0
BBX 0 0 0 0
BITMAP
ENDCHAR
STARTCHAR 01E1
ENCODING 481
SWIDTH 450 0
DWIDTH 15 0
BBX 0 0 0 0
BITMAP
ENDCHAR
STARTCHAR 01E2
ENCODING 482
SWIDTH 450 0
DWIDTH 15 0
BBX 0 0 0 0
BITMAP
ENDCHAR
STARTCHAR 01E3
ENCODING 483
SWIDTH 450 0
DWIDTH 15 0
BBX 0 0 0 0
BITMAP
ENDCHAR
STARTCHAR 01E4
ENCODING 484
SWIDTH 450 0
DWIDTH 15 0
BBX 0 0 0 0
BITMAP
ENDCHAR
STARTCHAR 01E5
ENCODING 485
SWIDTH 450 0
DWIDTH 15 0
BBX 0 0 0 0
BITMAP
ENDCHAR
STARTCHAR 01E6
ENCODING 486
SWIDTH 450 0
DWIDTH 15 0
BBX 0 0 0 0
BITMAP
ENDCHAR
STARTCHAR 01E7
ENCODING 487
SWIDTH 450 0
DWIDTH 15 0
BBX 0 0 0 0
BITMAP
ENDCHAR
STARTCHAR 01E8
ENCODING 488
SWIDTH 450 0
DWIDTH 15 0
BBX 0 0 0 0
BITMAP
ENDCHAR
STARTCHAR 01E9
ENCODING 489
SWIDTH 450 0
DWIDTH 15 0
BBX 0 0 0 0
BITMAP
ENDCHAR
STARTCHAR 01EA
ENCODING 490
SWIDTH 450 0
DWIDTH 15 0
BBX 0 0 0 0
BITMAP
ENDCHAR
STARTCHAR 01EB
ENCODING 491
SWIDTH 450 0
DWIDTH 15 0
BBX 0 0 0 0
BITMAP
ENDCHAR
STARTCHAR 01EC
ENCODING 492
SWIDTH 450 0
DWIDTH 15 0
BBX 0 0 0 0
BITMAP
ENDCHAR
STARTCHAR 01ED
ENCODING 493
SWIDTH 450 0
DWIDTH 15 0
BBX 0 0 0 0
BITMAP
ENDCHAR
STARTCHAR 01EE
ENCODING 494
SWIDTH 450 0
DWIDTH 15 0
BBX 0 0 0 0
BITMAP
ENDCHAR
STARTCHAR 01EF
ENCODING 495
SWIDTH 450 0
DWIDTH 15 0
BBX 0 0 0 0
BITMAP
ENDCHAR
STARTCHAR 01F0
ENCODING 496
SWIDTH 450 0
DWIDTH 15 0
BBX 0 0 0 0
BITMAP
ENDCHAR
STARTCHAR 01F1
ENCODING 497
SWIDTH 450 0
DWIDTH 15 0
BBX 0 0 0 0
BITMAP
ENDCHAR
STARTCHAR 01F2
ENCODING 498
SWIDTH 450 0
DWIDTH 15 0
BBX 0 0 0 0
BITMAP
ENDCHAR
STARTCHAR 01F3
ENCODING 499
SWIDTH 450 0
DWIDTH 15 0
BBX 0 0 0 0
BITMAP
ENDCHAR
STARTCHAR 01F4
ENCODING 500
SWIDTH 450 0
DWIDTH 15 0
BBX 0 0 0 0
BITMAP
ENDCHAR
STARTCHAR 01F5
ENCODING 501
SWIDTH 450 0
DWIDTH 15 0
BBX 0 0 0 0
BITMAP
ENDCHAR
STARTCHAR 01F6
ENCODING 502
SWIDTH 450 0
DWIDTH 15 0
BBX 0 0 0 0
BITMAP
ENDCHAR
STARTCHAR 01F7
ENCODING 503
SWIDTH 450 0
DWIDTH 15 0
BBX 0 0 0 0
BITMAP
ENDCHAR
STARTCHAR 01F8
ENCODING 504
SWIDTH 450 0
DWIDTH 15 0
BBX 0 0 0 0
BITMAP
ENDCHAR
STARTCHAR 01F9
ENCODING 505
SWIDTH 450 0
DWIDTH 15 0
BBX 0 0 0 0
BITMAP
ENDCHAR
STARTCHAR 01FA
ENCODING 506
SWIDTH 450 0
DWIDTH 15 0
BBX 0 0 0 0
BITMAP
ENDCHAR
STARTCHAR 01FB
ENCODING 507
SWIDTH 450 0
DWIDTH 15 0
BBX 0 0 0 0
BITMAP
ENDCHAR
STARTCHAR 01FC
ENCODING 508
SWIDTH 450 0
DWIDTH 15 0
BBX 0 0 0 0
BITMAP
ENDCHAR
STARTCHAR 01FD
ENCODING 509
SWIDTH 450 0
DWIDTH 15 0
BBX 0 0 0 0
BITMAP
ENDCHAR
STARTCHAR 01FE
ENCODING 510
SWIDTH 450 0
DWIDTH 15 0
BBX 0 0 0 0
BITMAP
ENDCHAR
STARTCHAR 01FF
ENCODING 511
SWIDTH 450 0
DWIDTH 15 0
BBX 0 0 0 0
BITMAP
ENDCHAR
STARTCHAR 0200
ENCODING 512
SWIDTH 450 0
DWIDTH 15 0
BBX 0 0 0 0
BITMAP
ENDCHAR
STARTCHAR 0201
ENCODING 513
SWIDTH 450 0
DWIDTH 15 0
BBX 0 0 0 0
BITMAP
ENDCHAR
STARTCHAR 0202
ENCODING 514
SWIDTH 450 0
DWIDTH 15 0
BBX 0 0 0 0
BITMAP
ENDCHAR
STARTCHAR 0203
ENCODING 515
SWIDTH 450 0
DWIDTH 15 0
BBX 0 0 0 0
BITMAP
ENDCHAR
STARTCHAR 0204
ENCODING 516
SWIDTH 450 0
DWIDTH 15 0
BBX 0 0 0 0
BITMAP
ENDCHAR
STARTCHAR 0205
ENCODING 517
SWIDTH 450 0
DWIDTH 15 0
BBX 0 0 0 0
BITMAP
ENDCHAR
STARTCHAR 0206
ENCODING 518
SWIDTH 450 0
DWIDTH 15 0
BBX 0 0 0 0
BITMAP
ENDCHAR
STARTCHAR 0207
ENCODING 519
SWIDTH 450 0
DWIDTH 15 0
BBX 0 0 0 0
BITMAP
ENDCHAR
STARTCHAR 0208
ENCODING 520
SWIDTH 450 0
DWIDTH 15 0
BBX 0 0 0 0
BITMAP
ENDCHAR
STARTCHAR 0209
ENCODING 521
SWIDTH 450 0
DWIDTH 15 0
BBX 0 0 0 0
BITMAP
ENDCHAR
STARTCHAR 020A
ENCODING 522
SWIDTH 450 0
DWIDTH 15 0
BBX 0 0 0 0
BITMAP
ENDCHAR
STARTCHAR 020B
ENCODING 523
SWIDTH 450 0
DWIDTH 15 0
BBX 0 0 0 0
BITMAP
ENDCHAR
STARTCHAR 020C
ENCODING 524
SWIDTH 450 0
DWIDTH 15 0
BBX 0 0 0 0
BITMAP
ENDCHAR
STARTCHAR 020D
ENCODING 525
SWIDTH 450 0
DWIDTH 15 0
BBX 0 0 0 0
BITMAP
ENDCHAR
STARTCHAR 020E
ENCODING 526
SWIDTH 450 0
DWIDTH 15 0
BBX 0 0 0 0
BITMAP
ENDCHAR
STARTCHAR 020F
ENCODING 527
SWIDTH 450 0
DWIDTH 15 0
BBX 0 0 0 0
BITMAP
ENDCHAR
STARTCHAR 0210
ENCODING 528
SWIDTH 450 0
DWIDTH 15 0
BBX 0 0 0 0
BITMAP
ENDCHAR
STARTCHAR 0211
ENCODING 529
SWIDTH 450 0
DWIDTH 15 0
BBX 0 0 0 0
BITMAP
ENDCHAR
STARTCHAR 0212
ENCODING 530
SWIDTH 450 0
DWIDTH 15 0
BBX 0 0 0 0
BITMAP
ENDCHAR
STARTCHAR 0213
ENCODING 531
SWIDTH 450 0
DWIDTH 15 0
BBX 0 0 0 0
BITMAP
ENDCHAR
STARTCHAR 0214
ENCODING 532
SWIDTH 450 0
DWIDTH 15 0
BBX 0 0 0 0
BITMAP
ENDCHAR
STARTCHAR 0215
ENCODING 533
SWIDTH 450 0
DWIDTH 15 0
BBX 0 0 0 0
BITMAP
ENDCHAR
STARTCHAR 0216
ENCODING 534
SWIDTH 450 0
DWIDTH 15 0
BBX 0 0 0 0
BITMAP
ENDCHAR
STARTCHAR 0217
ENCODING 535
SWIDTH 450 0
DWIDTH 15 0
BBX 0 0 0 0
BITMAP
ENDCHAR
STARTCHAR 0218
ENCODING 536
SWIDTH 450 0
DWIDTH 15 0
BBX 0 0 0 0
BITMAP
ENDCHAR
STARTCHAR 0219
ENCODING 537
SWIDTH 450 0
DWIDTH 15 0
BBX 0 0 0 0
BITMAP
ENDCHAR
STARTCHAR 021A
ENCODING 538
SWIDTH 450 0
DWIDTH 15 0
BBX 0 0 0 0
BITMAP
ENDCHAR
STARTCHAR 021B
ENCODING 539
SWIDTH 450 0
DWIDTH 15 0
BBX 0 0 0 0
BITMAP
ENDCHAR
STARTCHAR 021C
ENCODING 540
SWIDTH 450 0
DWIDTH 15 0
BBX 0 0 0 0
BITMAP
ENDCHAR
STARTCHAR 021D
ENCODING 541
SWIDTH 450 0
DWIDTH 15 0
BBX 0 0 0 0
BITMAP
ENDCHAR
STARTCHAR 021E
ENCODING 542
SWIDTH 450 0
DWIDTH 15 0
BBX 0 0 0 0
BITMAP
ENDCHAR
STARTCHAR 021F
ENCODING 543
SWIDTH 450 0
DWIDTH 15 0
BBX 0 0 0 0
BITMAP
ENDCHAR
STARTCHAR 20AC
ENCODING 8364
SWIDTH 540 0
DWIDTH 18 0
BBX 15 24 2 0
BITMAP
03E0
07F8
0FF8
1E3C
1C1C
1C0C
1C00
1C00
7FF8
FFF0
FFF0
1C00
1C00
7FE0
FFE0
FFC0
1C00
1C00
1C0E
1C1C
1E3C
0FF8
07F8
03E0
ENDCHAR
STARTCHAR 2190
ENCODING 8592
SWIDTH 720 0
DWIDTH 24 0
BBX 21 17 2 0
BITMAP
018000
03C000
078000
0F0000
1E0000
3C0000
780000
FFFFF8
FFFFF8
7FFFF8
3C0000
1E0000
0F0000
078000
03C000
01C000
008000
ENDCHAR
STARTCHAR 2191
ENCODING 8593
SWIDTH 630 0
DWIDTH 21 0
BBX 17 21 2 -1
BITMAP
008000
01C000
03E000
07F000
0FF800
1FFC00
3DDE00
79CF00
F1C780
61C300
01C000
01C000
01C000
01C000
01C000
01C000
01C000
01C000
01C000
01C000
01C000
ENDCHAR
STARTCHAR 2192
ENCODING 8594
SWIDTH 720 0
DWIDTH 24 0
BBX 21 17 1 0
BITMAP
000C00
001E00
000F00
000780
0003C0
0001E0
0000F0
FFFFF8
FFFFF8
FFFFF8
0001F0
0003E0
0007C0
000F80
001F00
001E00
000C00
ENDCHAR
STARTCHAR 2193
ENCODING 8595
SWIDTH 630 0
DWIDTH 21 0
BBX 17 21 2 -1
BITMAP
01C000
01C000
01C000
01C000
01C000
01C000
01C000
01C000
01C000
01C000
41C000
E1C300
F1C780
79CF00
3DDE00
1FFC00
0FF800
07F000
03E000
01C000
008000
ENDCHAR
STARTCHAR 2196
ENCODING 8598
SWIDTH 570 0
DWIDTH 19 0
BBX 16 16 2 0
BITMAP
FFF0
FFF0
FFF0
F800
FC00
FE00
EF00
E780
E3C0
E1E0
E0F0
E078
003C
001F
000E
0004
ENDCHAR
STARTCHAR 2197
ENCODING 8599
SWIDTH 570 0
DWIDTH 19 0
BBX 16 16 2 0
BITMAP
0FFF
0FFF
0FFF
003F
007F
00F7
01E7
03C7
0787
0F07
1E07
3C07
7800
F000
E000
4000
ENDCHAR
STARTCHAR 2198
ENCODING 8600
SWIDTH 570 0
DWIDTH 19 0
BBX 16 15 2 1
BITMAP
6000
F000
7800
3C07
1E07
0F07
0787
03C7
01E7
00F7
007F
003F
0FFF
0FFF
0FFF
ENDCHAR
STARTCHAR 2199
ENCODING 8601
SWIDTH 570 0
DWIDTH 19 0
BBX 16 15 1 1
BITMAP
0006
000F
001E
E03C
E078
E0F0
E1E0
E3C0
E780
EF00
FE00
FC00
FFF0
FFF0
FFF0
ENDCHAR
STARTCHAR 26DF
ENCODING 9951
SWIDTH 2670 0
DWIDTH 89 0
BBX 85 23 2 0
BITMAP
FFFFFFFFFFFFFFFFFC0000
FFFFFFFFFFFFFFFFFCFE00
FFFFFFFFFFFFFFFFFCFF80
FFFFFFFFFFFFFFFFFCFFF0
FFFFFFFFFFFFFFFFFCFFF8
FFFFFFFFFFFFFFFFFCFC10
FFFFFFFFFFFFFFFFFCFC10
FFFFFFFFFFFFFFFFFCFC10
FFFFFFFFFFFFFFFFFCFC10
FFFFFFFFFFFFFFFFFCFC10
FFFFFFFFFFFFFFFFFCFC10
FFFFFFFFFFFFFFFFFEFFF8
FFFFFFFFFFFFFFFFFEFFF8
FFFFFFFFFFFFFFFFFEFFF8
FFFFFFFFFFFFFFFFFEFFF8
FFFFFFFFFFFFFFFFFEFFF8
FFFFFFFFFFFFFFFFFCFFF8
00F0E1E0000001CE00FE78
0169D2D0000002FFFFFDB8
02FBEDF0000005FFFFFBD8
03F7FFE8000007EFFFFFD8
01F1F3E0000003E00007C0
00E0E1C0000001C0000380
ENDCHAR
STARTCHAR 2794
ENCODING 10132
SWIDTH 720 0
DWIDTH 24 0
BBX 21 17 1 0
BITMAP
000C00
001E00
000F00
000780
0003C0
0001E0
0000F0
FFFFF8
FFFFF8
FFFFF8
0001F0
0003E0
0007C0
000F80
001F00
001E00
000C00
ENDCHAR
STARTCHAR 463B
ENCODING 17979
SWIDTH 990 0
DWIDTH 33 0
BBX 29 11 2 0
BITMAP
007F8000
07808000
0C004000
3C002000
FFFFFFC0
FFFFFFF8
E3FFFE38
FDFFFDD8
1FFFFDF0
1E0001E0
0C0000C0
ENDCHAR
STARTCHAR E031
ENCODING 57393
SWIDTH 420 0
DWIDTH 14 0
BBX 10 19 2 1
BITMAP
0800
0800
1800
1C00
3E00
3C00
3C00
3C00
3C00
9C00
EC00
FC00
F600
2600
6600
4300
C300
61C0
0100
ENDCHAR
ENDFONT
